<?xml version="1.0" encoding="utf-8"?>
<!-- Generator: Adobe Illustrator 24.1.2, SVG Export Plug-In . SVG Version: 6.00 Build 0)  -->
<svg version="1.1" id="Layer_1" xmlns="http://www.w3.org/2000/svg" xmlns:xlink="http://www.w3.org/1999/xlink" x="0px" y="0px"
	 viewBox="0 0 143.6 48" style="enable-background:new 0 0 143.6 48;" xml:space="preserve">
<style type="text/css">
	.st0{fill:#B6B6B6;}
	.st1{fill:#FFFFFF;}
</style>
<g>
	<g>
		<g>
			<g>
				<path class="st0" d="M132.2,0H11.4c-0.4,0-0.9,0-1.3,0C9.8,0,9.4,0,9,0C8.2,0,7.4,0.1,6.6,0.2C5.8,0.4,5.1,0.6,4.3,1
					C3.6,1.3,3,1.8,2.4,2.4C1.8,3,1.3,3.6,1,4.3C0.6,5.1,0.4,5.8,0.2,6.6C0.1,7.4,0,8.2,0,9c0,0.4,0,0.7,0,1.1c0,0.4,0,0.9,0,1.3
					v25.1c0,0.4,0,0.9,0,1.3c0,0.4,0,0.7,0,1.1c0,0.8,0.1,1.6,0.2,2.4c0.1,0.8,0.4,1.6,0.8,2.3c0.4,0.7,0.8,1.4,1.4,1.9
					C3,46.2,3.6,46.6,4.4,47c0.7,0.4,1.5,0.6,2.3,0.8C7.4,47.9,8.2,47.9,9,48c0.4,0,0.7,0,1.1,0c0.4,0,0.9,0,1.3,0h120.7
					c0.4,0,0.9,0,1.3,0c0.4,0,0.7,0,1.1,0c0.8,0,1.6-0.1,2.4-0.2c0.8-0.1,1.5-0.4,2.3-0.8c0.7-0.4,1.4-0.8,1.9-1.4
					c0.6-0.6,1-1.2,1.4-1.9c0.4-0.7,0.6-1.5,0.7-2.3c0.1-0.8,0.2-1.6,0.2-2.4c0-0.4,0-0.7,0-1.1c0-0.4,0-0.9,0-1.3V11.4
					c0-0.4,0-0.9,0-1.3c0-0.4,0-0.7,0-1.1c0-0.8-0.1-1.6-0.2-2.4c-0.1-0.8-0.4-1.5-0.7-2.3c-0.4-0.7-0.9-1.4-1.4-1.9
					c-0.6-0.6-1.2-1-1.9-1.4c-0.7-0.4-1.5-0.6-2.3-0.8c-0.8-0.1-1.6-0.2-2.4-0.2c-0.4,0-0.7,0-1.1,0C133,0,132.6,0,132.2,0L132.2,0z
					"/>
				<path d="M10.1,46.9c-0.4,0-0.7,0-1.1,0c-0.7,0-1.5-0.1-2.2-0.2c-0.7-0.1-1.4-0.3-2-0.7c-0.6-0.3-1.2-0.7-1.7-1.2
					c-0.5-0.5-0.9-1-1.2-1.7c-0.3-0.6-0.5-1.3-0.6-2c-0.1-0.8-0.2-1.6-0.2-2.3c0-0.3,0-1.1,0-1.1V10.1c0,0,0-0.8,0-1.1
					c0-0.6,0.1-1.5,0.2-2.2c0.1-0.7,0.3-1.4,0.7-2c0.3-0.6,0.7-1.2,1.2-1.7c0.5-0.5,1.1-0.9,1.7-1.2s1.3-0.5,2-0.6
					C7.6,1.1,8.4,1.1,9,1.1l1.1,0h123.3l1.1,0c0.6,0,1.4,0,2.2,0.2c0.7,0.1,1.4,0.3,2,0.7c0.6,0.3,1.2,0.7,1.7,1.2
					c0.5,0.5,0.9,1.1,1.2,1.7c0.3,0.6,0.5,1.3,0.6,2c0.1,0.8,0.2,1.5,0.2,2.3c0,0.3,0,0.7,0,1.1c0,0.5,0,0.9,0,1.3v25.1
					c0,0.4,0,0.9,0,1.3c0,0.4,0,0.7,0,1.1c0,0.7-0.1,1.5-0.2,2.2c-0.1,0.7-0.3,1.4-0.6,2c-0.3,0.6-0.7,1.2-1.2,1.7
					c-0.5,0.5-1.1,0.9-1.7,1.2c-0.6,0.3-1.3,0.5-2,0.7c-0.8,0.1-1.6,0.2-2.2,0.2c-0.3,0-0.7,0-1.1,0h-1.3L10.1,46.9z"/>
			</g>
		</g>
		<g id="XMLID_40_">
			<g id="XMLID_41_">
				<g id="XMLID_43_">
					<path id="XMLID_45_" class="st1" d="M29.7,24.4c0-3.3,2.7-4.9,2.8-5c-1.5-2.3-3.9-2.6-4.8-2.6c-2-0.2-4,1.2-5,1.2
						c-1,0-2.6-1.2-4.3-1.2c-2.2,0-4.2,1.3-5.4,3.3c-2.3,4-0.6,9.9,1.6,13.2c1.1,1.6,2.4,3.4,4.1,3.3c1.7-0.1,2.3-1.1,4.3-1.1
						c2,0,2.6,1.1,4.3,1c1.8,0,2.9-1.6,4-3.2c1.3-1.8,1.8-3.6,1.8-3.7C33.2,29.6,29.8,28.3,29.7,24.4z"/>
					<path id="XMLID_44_" class="st1" d="M26.4,14.7c0.9-1.1,1.5-2.6,1.3-4.2c-1.3,0.1-2.9,0.9-3.9,2c-0.8,1-1.6,2.5-1.4,4
						C24,16.6,25.5,15.8,26.4,14.7z"/>
				</g>
			</g>
			<g>
				<path class="st1" d="M50.8,32.6h-5.7l-1.4,4h-2.4l5.4-14.9h2.5l5.4,14.9h-2.4L50.8,32.6z M45.7,30.7h4.5L48,24.2h-0.1L45.7,30.7
					z"/>
				<path class="st1" d="M66.2,31.2c0,3.4-1.8,5.5-4.5,5.5c-1.5,0-2.8-0.7-3.4-1.9h0v5.4H56V25.7h2.2v1.8h0c0.6-1.2,1.9-1.9,3.5-1.9
					C64.4,25.6,66.2,27.8,66.2,31.2z M63.9,31.2c0-2.2-1.1-3.6-2.9-3.6c-1.7,0-2.9,1.5-2.9,3.6c0,2.2,1.2,3.7,2.9,3.7
					C62.8,34.8,63.9,33.4,63.9,31.2z"/>
				<path class="st1" d="M78.1,31.2c0,3.4-1.8,5.5-4.5,5.5c-1.5,0-2.8-0.7-3.4-1.9h0v5.4h-2.2V25.7h2.2v1.8h0
					c0.6-1.2,1.9-1.9,3.5-1.9C76.3,25.6,78.1,27.8,78.1,31.2z M75.9,31.2c0-2.2-1.1-3.6-2.9-3.6c-1.7,0-2.9,1.5-2.9,3.6
					c0,2.2,1.2,3.7,2.9,3.7C74.7,34.8,75.9,33.4,75.9,31.2z"/>
				<path class="st1" d="M86.1,32.4c0.2,1.5,1.6,2.4,3.6,2.4c1.9,0,3.2-1,3.2-2.3c0-1.2-0.8-1.8-2.7-2.3l-1.9-0.5
					c-2.7-0.7-4-1.9-4-4c0-2.6,2.2-4.3,5.4-4.3c3.1,0,5.3,1.8,5.4,4.3h-2.3c-0.1-1.5-1.4-2.4-3.2-2.4c-1.8,0-3,0.9-3,2.2
					c0,1.1,0.8,1.7,2.7,2.1l1.6,0.4c3.1,0.7,4.3,2,4.3,4.1c0,2.8-2.2,4.5-5.7,4.5c-3.3,0-5.5-1.7-5.7-4.4L86.1,32.4L86.1,32.4z"/>
				<path class="st1" d="M100,23.2v2.6h2.1v1.8H100v6c0,0.9,0.4,1.4,1.3,1.4c0.2,0,0.6,0,0.7,0v1.8c-0.3,0.1-0.7,0.1-1.2,0.1
					c-2.2,0-3.1-0.8-3.1-2.9v-6.2h-1.6v-1.8h1.6v-2.6H100z"/>
				<path class="st1" d="M103.3,31.2c0-3.4,2-5.6,5.1-5.6c3.1,0,5.1,2.1,5.1,5.6c0,3.4-2,5.6-5.1,5.6
					C105.3,36.7,103.3,34.6,103.3,31.2z M111.3,31.2c0-2.3-1.1-3.7-2.9-3.7c-1.8,0-2.9,1.4-2.9,3.7c0,2.4,1.1,3.7,2.9,3.7
					S111.3,33.5,111.3,31.2z"/>
				<path class="st1" d="M115.4,25.7h2.1v1.8h0c0.3-1.2,1.3-2,2.6-2c0.3,0,0.6,0,0.8,0.1v2.1c-0.2-0.1-0.6-0.1-1-0.1
					c-1.4,0-2.3,1-2.3,2.5v6.4h-2.2C115.4,36.6,115.4,25.7,115.4,25.7z"/>
				<path class="st1" d="M131.3,33.4c-0.3,2-2.2,3.3-4.7,3.3c-3.2,0-5.1-2.1-5.1-5.5s2-5.6,5-5.6c3,0,4.9,2.1,4.9,5.4v0.8h-7.7v0.1
					c0,1.9,1.2,3.1,2.9,3.1c1.2,0,2.2-0.6,2.5-1.5C129.1,33.4,131.3,33.4,131.3,33.4z M123.7,30.2h5.4c0-1.7-1.1-2.8-2.7-2.8
					C125,27.4,123.8,28.5,123.7,30.2z"/>
			</g>
		</g>
	</g>
	<g id="XMLID_14_">
		<g>
			<path class="st1" d="M45.4,10.5c2.1,0,3.4,1.3,3.4,3.6c0,2.3-1.2,3.6-3.4,3.6h-2.6v-7.2H45.4z M43.9,16.6h1.3
				c1.5,0,2.4-0.9,2.4-2.6c0-1.6-0.9-2.6-2.4-2.6h-1.3V16.6z"/>
			<path class="st1" d="M50,14.9c0-1.7,1-2.8,2.5-2.8c1.6,0,2.5,1.1,2.5,2.8s-1,2.8-2.5,2.8C51,17.7,50,16.7,50,14.9z M54,14.9
				c0-1.2-0.5-1.9-1.5-1.9c-0.9,0-1.5,0.7-1.5,1.9s0.5,1.9,1.5,1.9C53.5,16.8,54,16.1,54,14.9z"/>
			<path class="st1" d="M61.9,17.6h-1.1l-1.1-4h-0.1l-1.1,4h-1.1l-1.5-5.4H57l1,4.1H58l1.1-4.1h1l1.1,4.1h0.1l1-4.1h1.1L61.9,17.6z"
				/>
			<path class="st1" d="M64.6,12.2h1v0.9h0.1c0.3-0.6,0.8-1,1.6-1c1.2,0,1.9,0.7,1.9,2v3.5h-1.1v-3.2c0-0.9-0.4-1.3-1.2-1.3
				s-1.3,0.5-1.3,1.4v3.2h-1.1V12.2z"/>
			<path class="st1" d="M70.9,10.1H72v7.5h-1.1V10.1z"/>
			<path class="st1" d="M73.5,14.9c0-1.7,1-2.8,2.5-2.8s2.5,1.1,2.5,2.8s-1,2.8-2.5,2.8C74.4,17.7,73.5,16.7,73.5,14.9z M77.5,14.9
				c0-1.2-0.5-1.9-1.5-1.9s-1.5,0.7-1.5,1.9s0.5,1.9,1.5,1.9C76.9,16.8,77.5,16.1,77.5,14.9z"/>
			<path class="st1" d="M79.7,16.1c0-1,0.7-1.5,2-1.6l1.5-0.1v-0.5c0-0.6-0.4-0.9-1.1-0.9c-0.6,0-1,0.2-1.1,0.6h-1
				c0.1-0.9,1-1.5,2.2-1.5c1.4,0,2.1,0.7,2.1,1.8v3.7h-1v-0.8h-0.1c-0.3,0.5-0.9,0.9-1.6,0.9C80.4,17.7,79.7,17.1,79.7,16.1z
				 M83.2,15.6v-0.5l-1.3,0.1c-0.7,0-1.1,0.3-1.1,0.8c0,0.5,0.4,0.8,1,0.8C82.6,16.8,83.2,16.3,83.2,15.6z"/>
			<path class="st1" d="M85.6,14.9c0-1.7,0.9-2.8,2.2-2.8c0.7,0,1.4,0.3,1.7,0.9h0.1v-3h1.1v7.5h-1v-0.9h-0.1
				c-0.3,0.6-0.9,0.9-1.7,0.9C86.5,17.7,85.6,16.6,85.6,14.9z M86.7,14.9c0,1.2,0.5,1.8,1.4,1.8s1.5-0.7,1.5-1.8
				c0-1.1-0.6-1.8-1.5-1.8C87.3,13.1,86.7,13.8,86.7,14.9z"/>
			<path class="st1" d="M95.1,14.9c0-1.7,1-2.8,2.5-2.8c1.6,0,2.5,1.1,2.5,2.8s-1,2.8-2.5,2.8S95.1,16.7,95.1,14.9z M99.1,14.9
				c0-1.2-0.5-1.9-1.5-1.9s-1.5,0.7-1.5,1.9s0.5,1.9,1.5,1.9C98.5,16.8,99.1,16.1,99.1,14.9z"/>
			<path class="st1" d="M101.6,12.2h1v0.9h0.1c0.3-0.6,0.8-1,1.6-1c1.2,0,1.9,0.7,1.9,2v3.5h-1.1v-3.2c0-0.9-0.4-1.3-1.2-1.3
				c-0.8,0-1.3,0.5-1.3,1.4v3.2h-1.1C101.6,17.6,101.6,12.2,101.6,12.2z"/>
			<path class="st1" d="M112.2,10.9v1.4h1.2v0.9h-1.2v2.8c0,0.6,0.2,0.8,0.8,0.8c0.2,0,0.3,0,0.4,0v0.9c-0.2,0-0.4,0.1-0.6,0.1
				c-1.2,0-1.7-0.4-1.7-1.5v-3h-0.9v-0.9h0.9v-1.4H112.2z"/>
			<path class="st1" d="M114.8,10.1h1.1v3h0.1c0.3-0.6,0.8-1,1.6-1c1.2,0,1.9,0.7,1.9,2v3.5h-1.1v-3.2c0-0.9-0.4-1.3-1.2-1.3
				c-0.9,0-1.4,0.6-1.4,1.4v3.2h-1.1V10.1z"/>
			<path class="st1" d="M125.7,16.2c-0.2,1-1.1,1.6-2.3,1.6c-1.5,0-2.5-1.1-2.5-2.8c0-1.7,1-2.8,2.5-2.8c1.5,0,2.4,1,2.4,2.7v0.4
				H122v0.1c0,0.9,0.6,1.5,1.4,1.5c0.6,0,1.1-0.2,1.3-0.7C124.7,16.2,125.7,16.2,125.7,16.2z M122,14.4h2.7c0-0.9-0.5-1.4-1.3-1.4
				C122.6,13,122,13.6,122,14.4z"/>
		</g>
	</g>
</g>
</svg>
