<?xml version="1.0" encoding="utf-8"?>
<!-- Generator: Adobe Illustrator 24.1.2, SVG Export Plug-In . SVG Version: 6.00 Build 0)  -->
<svg version="1.1" id="Layer_1" xmlns="http://www.w3.org/2000/svg" xmlns:xlink="http://www.w3.org/1999/xlink" x="0px" y="0px"
	 viewBox="0 0 162 48" style="enable-background:new 0 0 162 48;" xml:space="preserve">
<style type="text/css">
	.st0{fill:#A6A6A6;}
	.st1{fill:#FFFFFF;stroke:#FFFFFF;stroke-width:0.2;stroke-miterlimit:10;}
	.st2{fill:#FFFFFF;}
	.st3{fill:url(#XMLID_10_);}
	.st4{fill:url(#XMLID_11_);}
	.st5{fill:url(#XMLID_12_);}
	.st6{fill:url(#XMLID_13_);}
	.st7{opacity:0.2;enable-background:new    ;}
	.st8{opacity:0.12;enable-background:new    ;}
	.st9{opacity:0.25;fill:#FFFFFF;enable-background:new    ;}
</style>
<g id="XMLID_19_">
	<g id="XMLID_37_">
		<path d="M156,48H6c-3.3,0-6-2.7-6-6V6c0-3.3,2.7-6,6-6h150c3.3,0,6,2.7,6,6v36C162,45.3,159.3,48,156,48z"/>
	</g>
	<g id="XMLID_92_">
		<g id="XMLID_93_">
			<path id="XMLID_94_" class="st0" d="M156,1c2.8,0,5,2.3,5,5v36c0,2.8-2.3,5-5,5H6c-2.8,0-5-2.3-5-5V6c0-2.8,2.3-5,5-5L156,1
				 M156,0H6C2.7,0,0,2.7,0,6v36c0,3.3,2.7,6,6,6h150c3.3,0,6-2.7,6-6V6C162,2.7,159.3,0,156,0L156,0z"/>
		</g>
	</g>
	<g id="XMLID_76_">
		<path id="XMLID_90_" class="st1" d="M56.9,12.3c0,1-0.3,1.8-0.9,2.4c-0.7,0.7-1.6,1.1-2.6,1.1c-1,0-1.9-0.4-2.7-1.1
			C50,14,49.6,13.1,49.6,12c0-1.1,0.4-2,1.1-2.7c0.7-0.7,1.6-1.1,2.7-1.1c0.5,0,1,0.1,1.5,0.3C55.3,8.7,55.7,9,56,9.3L55.3,10
			c-0.5-0.6-1.1-0.9-2-0.9c-0.8,0-1.4,0.3-2,0.8c-0.6,0.5-0.8,1.2-0.8,2.1s0.3,1.5,0.8,2.1c0.6,0.5,1.2,0.8,2,0.8
			c0.8,0,1.5-0.3,2-0.8c0.3-0.3,0.6-0.8,0.6-1.5h-2.6v-0.9h3.5C56.9,11.9,56.9,12.1,56.9,12.3z"/>
		<path id="XMLID_88_" class="st1" d="M62.4,9.3h-3.3v2.3h3v0.9h-3v2.3h3.3v0.9h-4.2V8.4h4.2V9.3z"/>
		<path id="XMLID_86_" class="st1" d="M66.3,15.6h-0.9V9.3h-2V8.4h4.9v0.9h-2L66.3,15.6L66.3,15.6z"/>
		<path id="XMLID_84_" class="st1" d="M71.9,15.6V8.4h0.9v7.2H71.9z"/>
		<path id="XMLID_82_" class="st1" d="M77,15.6H76V9.3h-2V8.4H79v0.9h-2L77,15.6L77,15.6z"/>
		<path id="XMLID_79_" class="st1" d="M88.3,14.7c-0.7,0.7-1.6,1.1-2.6,1.1c-1.1,0-1.9-0.4-2.6-1.1C82.3,13.9,82,13,82,12
			c0-1.1,0.3-1.9,1.1-2.7c0.7-0.7,1.6-1.1,2.6-1.1c1,0,1.9,0.4,2.6,1.1c0.7,0.7,1.1,1.6,1.1,2.7C89.4,13.1,89,13.9,88.3,14.7z
			 M83.7,14.1c0.5,0.5,1.2,0.8,2,0.8s1.4-0.3,2-0.8s0.8-1.2,0.8-2.1c0-0.8-0.3-1.5-0.8-2.1c-0.5-0.5-1.2-0.8-2-0.8
			c-0.8,0-1.4,0.3-2,0.8c-0.5,0.6-0.8,1.2-0.8,2.1S83.2,13.5,83.7,14.1z"/>
		<path id="XMLID_77_" class="st1" d="M90.7,15.6V8.4h1.1l3.5,5.6h0l0-1.4V8.4h0.9v7.2h-1l-3.7-5.9h0l0,1.4v4.5H90.7z"/>
	</g>
	<path id="XMLID_52_" class="st2" d="M81.8,26.1c-2.8,0-5.1,2.1-5.1,5.1c0,2.9,2.3,5.1,5.1,5.1s5.1-2.2,5.1-5.1
		C86.9,28.2,84.6,26.1,81.8,26.1z M81.8,34.3c-1.5,0-2.9-1.3-2.9-3.1c0-1.8,1.3-3.1,2.9-3.1c1.5,0,2.9,1.3,2.9,3.1
		C84.6,33,83.3,34.3,81.8,34.3z M70.6,26.1c-2.8,0-5.1,2.1-5.1,5.1c0,2.9,2.3,5.1,5.1,5.1s5.1-2.2,5.1-5.1
		C75.7,28.2,73.4,26.1,70.6,26.1z M70.6,34.3c-1.5,0-2.9-1.3-2.9-3.1c0-1.8,1.3-3.1,2.9-3.1s2.9,1.3,2.9,3.1
		C73.5,33,72.1,34.3,70.6,34.3z M57.3,27.7v2.2h5.2c-0.2,1.2-0.6,2.1-1.2,2.7c-0.8,0.8-1.9,1.6-4,1.6c-3.2,0-5.7-2.6-5.7-5.8
		s2.5-5.8,5.7-5.8c1.7,0,3,0.7,3.9,1.5l1.5-1.5c-1.3-1.2-3-2.2-5.4-2.2c-4.4,0-8,3.6-8,7.9c0,4.4,3.7,7.9,8,7.9
		c2.4,0,4.1-0.8,5.5-2.2c1.4-1.4,1.9-3.4,1.9-5.1c0-0.5,0-1-0.1-1.4L57.3,27.7L57.3,27.7z M111.7,29.4c-0.4-1.1-1.7-3.3-4.4-3.3
		c-2.6,0-4.8,2.1-4.8,5.1c0,2.9,2.2,5.1,5.1,5.1c2.3,0,3.7-1.4,4.2-2.3l-1.7-1.2c-0.6,0.9-1.4,1.4-2.5,1.4c-1.1,0-2-0.5-2.5-1.5
		l6.8-2.8L111.7,29.4z M104.7,31.1c-0.1-2,1.5-3,2.7-3c0.9,0,1.6,0.4,1.9,1.1L104.7,31.1z M99.2,36h2.2V21h-2.2V36z M95.5,27.2
		L95.5,27.2c-0.6-0.6-1.5-1.1-2.8-1.1c-2.6,0-4.9,2.2-4.9,5.1c0,2.9,2.3,5.1,4.9,5.1c1.2,0,2.2-0.5,2.7-1.2h0.1v0.7c0,2-1,3-2.7,3
		c-1.4,0-2.2-1-2.6-1.8l-2,0.8c0.6,1.4,2.1,3,4.5,3c2.6,0,4.8-1.5,4.8-5.3v-9.2h-2.1L95.5,27.2L95.5,27.2z M92.9,34.3
		c-1.5,0-2.8-1.3-2.8-3.1c0-1.8,1.3-3.1,2.8-3.1c1.5,0,2.7,1.3,2.7,3.1C95.6,33,94.4,34.3,92.9,34.3z M122.2,21h-5.4v15h2.2v-5.7
		h3.1c2.5,0,4.9-1.8,4.9-4.7S124.6,21,122.2,21z M122.2,28.2H119v-5.1h3.2c1.7,0,2.6,1.4,2.6,2.6S123.9,28.2,122.2,28.2z
		 M136.1,26.1c-1.6,0-3.3,0.7-4,2.3l2,0.8c0.4-0.8,1.2-1.1,2-1.1c1.2,0,2.3,0.7,2.4,1.9v0.2c-0.4-0.2-1.3-0.6-2.3-0.6
		c-2.1,0-4.3,1.2-4.3,3.4c0,2,1.8,3.3,3.7,3.3c1.5,0,2.3-0.7,2.9-1.5h0.1V36h2.2v-5.7C140.6,27.6,138.6,26.1,136.1,26.1z
		 M135.8,34.3c-0.7,0-1.8-0.4-1.8-1.3c0-1.2,1.3-1.6,2.4-1.6c1,0,1.5,0.2,2,0.5C138.3,33.3,137.1,34.3,135.8,34.3z M148.5,26.4
		l-2.6,6.5h-0.1l-2.7-6.5h-2.4l4,9.1l-2.3,5.1h2.3l6.2-14.1H148.5z M128.3,36h2.2V21h-2.2V36z"/>
	<g id="XMLID_39_">
		
			<linearGradient id="XMLID_10_" gradientUnits="userSpaceOnUse" x1="26.1628" y1="992.4552" x2="6.0241" y2="1012.5939" gradientTransform="matrix(1 0 0 1 0 -982)">
			<stop  offset="0" style="stop-color:#00A0FF"/>
			<stop  offset="6.574450e-03" style="stop-color:#00A1FF"/>
			<stop  offset="0.2601" style="stop-color:#00BEFF"/>
			<stop  offset="0.5122" style="stop-color:#00D2FF"/>
			<stop  offset="0.7604" style="stop-color:#00DFFF"/>
			<stop  offset="1" style="stop-color:#00E3FF"/>
		</linearGradient>
		<path id="XMLID_8_" class="st3" d="M12.5,9C12.2,9.4,12,10,12,10.7v26.5c0,0.7,0.2,1.3,0.6,1.7l0.1,0.1l14.9-14.9V24v-0.2L12.5,9
			L12.5,9z"/>
		
			<linearGradient id="XMLID_11_" gradientUnits="userSpaceOnUse" x1="40.6009" y1="1006" x2="11.5648" y2="1006" gradientTransform="matrix(1 0 0 1 0 -982)">
			<stop  offset="0" style="stop-color:#FFE000"/>
			<stop  offset="0.4087" style="stop-color:#FFBD00"/>
			<stop  offset="0.7754" style="stop-color:#FFA500"/>
			<stop  offset="1" style="stop-color:#FF9C00"/>
		</linearGradient>
		<path id="XMLID_7_" class="st4" d="M32.4,29.1l-5-5V24v-0.2l5-5l0.1,0.1l5.9,3.3c1.7,0.9,1.7,2.5,0,3.5l-5.9,3.3L32.4,29.1z"/>
		
			<linearGradient id="XMLID_12_" gradientUnits="userSpaceOnUse" x1="29.7903" y1="1008.7536" x2="2.4806" y2="1036.0635" gradientTransform="matrix(1 0 0 1 0 -982)">
			<stop  offset="0" style="stop-color:#FF3A44"/>
			<stop  offset="1" style="stop-color:#C31162"/>
		</linearGradient>
		<path id="XMLID_6_" class="st5" d="M32.5,29.1L27.5,24l-15,15c0.6,0.6,1.5,0.7,2.5,0.1L32.5,29.1"/>
		
			<linearGradient id="XMLID_13_" gradientUnits="userSpaceOnUse" x1="8.753" y1="982.2151" x2="20.948" y2="994.41" gradientTransform="matrix(1 0 0 1 0 -982)">
			<stop  offset="0" style="stop-color:#32A071"/>
			<stop  offset="6.850000e-02" style="stop-color:#2DA771"/>
			<stop  offset="0.4762" style="stop-color:#15CF74"/>
			<stop  offset="0.8009" style="stop-color:#06E775"/>
			<stop  offset="1" style="stop-color:#00F076"/>
		</linearGradient>
		<path id="XMLID_5_" class="st6" d="M32.5,18.9L15,9c-1-0.6-1.9-0.5-2.5,0.1l15,15L32.5,18.9z"/>
		<g id="XMLID_42_">
			<path id="XMLID_4_" class="st7" d="M32.4,29L15,38.9c-1,0.6-1.8,0.5-2.4,0l0,0L12.5,39l0,0l0.1,0.1l0,0c0.6,0.5,1.4,0.5,2.4,0
				l17.5-10L32.4,29z"/>
			<path id="XMLID_3_" class="st8" d="M12.5,38.8c-0.3-0.4-0.6-0.9-0.6-1.7v0.2c0,0.7,0.2,1.3,0.6,1.7V38.8L12.5,38.8z"/>
		</g>
		<path id="XMLID_2_" class="st8" d="M38.4,25.6l-6,3.4l0.1,0.1l5.9-3.3c0.8-0.5,1.3-1.1,1.3-1.7l0,0C39.6,24.6,39.2,25.1,38.4,25.6
			z"/>
		<path id="XMLID_1_" class="st9" d="M15,9.1l23.4,13.3c0.8,0.4,1.2,1,1.3,1.6l0,0c0-0.6-0.4-1.3-1.3-1.7L15,9c-1.7-0.9-3-0.2-3,1.8
			v0.2C12,9,13.3,8.2,15,9.1z"/>
	</g>
</g>
</svg>
