<svg xmlns="http://www.w3.org/2000/svg" xmlns:xlink="http://www.w3.org/1999/xlink" width="470.593" height="870.177" viewBox="0 0 470.593 870.177">
  <defs>
    <linearGradient id="linear-gradient" x1="-1.262" y1="1.32" x2="-1.262" y2="1.319" gradientUnits="objectBoundingBox">
      <stop offset="0" stop-color="#53471c"/>
      <stop offset="1" stop-color="#e2b109"/>
    </linearGradient>
    <linearGradient id="linear-gradient-2" x1="0.5" x2="0.5" y2="1" gradientUnits="objectBoundingBox">
      <stop offset="0" stop-color="#ffc600"/>
      <stop offset="1" stop-color="#846804"/>
    </linearGradient>
    <linearGradient id="linear-gradient-3" x1="-1.392" y1="1.381" x2="-1.392" y2="1.38" gradientUnits="objectBoundingBox">
      <stop offset="0" stop-color="#5e4901"/>
      <stop offset="1" stop-color="#524000"/>
    </linearGradient>
    <linearGradient id="linear-gradient-4" x1="0.5" x2="0.5" y2="1" gradientUnits="objectBoundingBox">
      <stop offset="0" stop-color="#a28212"/>
      <stop offset="1" stop-color="#846804"/>
    </linearGradient>
    <linearGradient id="linear-gradient-5" x1="-5.463" y1="3.981" x2="-5.463" y2="3.978" gradientUnits="objectBoundingBox">
      <stop offset="0" stop-color="#e8be00"/>
      <stop offset="1" stop-color="#d6ae1b"/>
    </linearGradient>
    <linearGradient id="linear-gradient-6" x1="0.5" x2="0.5" y2="1" gradientUnits="objectBoundingBox">
      <stop offset="0" stop-color="#f8d559"/>
      <stop offset="1" stop-color="#846804"/>
    </linearGradient>
    <linearGradient id="linear-gradient-7" x1="0.5" x2="0.5" y2="1" gradientUnits="objectBoundingBox">
      <stop offset="0" stop-color="#b18d0c"/>
      <stop offset="1" stop-color="#846804"/>
    </linearGradient>
    <linearGradient id="linear-gradient-8" x1="0" y1="0.5" x2="1" y2="0.5" xlink:href="#linear-gradient-3"/>
  </defs>
  <g id="Group_41" data-name="Group 41" transform="translate(-138 9.5)">
    <line id="Line_5" data-name="Line 5" y2="117" transform="translate(511.5 65.5)" fill="none" stroke="#feca00" stroke-linecap="round" stroke-width="8"/>
    <g id="Group_31" data-name="Group 31" transform="translate(-109.031 -39.21)">
      <g id="Ellipse_39" data-name="Ellipse 39" transform="translate(524 222.18)">
        <circle id="Ellipse_51" data-name="Ellipse 51" cx="96.812" cy="96.812" r="96.812" fill="url(#linear-gradient)"/>
        <path id="Path_131" data-name="Path 131" d="M620.813,415.8A96.513,96.513,0,1,1,658.5,408.2,96.2,96.2,0,0,1,620.813,415.8Zm0-191.92a94.8,94.8,0,1,0,37.02,7.473A94.516,94.516,0,0,0,620.813,223.884Z" transform="translate(-524 -222.18)" fill="url(#linear-gradient-2)"/>
      </g>
      <g id="Ellipse_40" data-name="Ellipse 40" transform="translate(530.647 228.827)">
        <circle id="Ellipse_52" data-name="Ellipse 52" cx="90.165" cy="90.165" r="90.165" transform="translate(0 0)" fill="url(#linear-gradient-3)"/>
        <path id="Path_132" data-name="Path 132" d="M628.381,416.725a89.885,89.885,0,1,1,35.1-7.086A89.6,89.6,0,0,1,628.381,416.725Zm0-178.626a88.18,88.18,0,1,0,34.433,6.951A87.906,87.906,0,0,0,628.381,238.1Z" transform="translate(-538.216 -236.395)" fill="url(#linear-gradient-4)"/>
      </g>
      <g id="Group_34" data-name="Group 34" transform="translate(545.817 243.996)">
        <path id="Path_134" data-name="Path 134" d="M645.653,418.827a74.762,74.762,0,1,1,29.192-5.894A74.524,74.524,0,0,1,645.653,418.827Zm0-149.139a73.909,73.909,0,1,0,28.86,5.826A73.681,73.681,0,0,0,645.653,269.688Z" transform="translate(-570.657 -268.836)" fill="#dcb600"/>
        <path id="Path_135" data-name="Path 135" d="M648.26,419.3a72.638,72.638,0,1,1,28.363-5.726A72.409,72.409,0,0,1,648.26,419.3Zm0-144.878a71.787,71.787,0,1,0,28.03,5.659A71.565,71.565,0,0,0,648.26,274.427Z" transform="translate(-573.179 -271.359)" fill="#dcb600"/>
        <path id="Path_136" data-name="Path 136" d="M650.5,419.418a70.514,70.514,0,1,1,27.533-5.559A70.3,70.3,0,0,1,650.5,419.418Zm0-140.617a69.663,69.663,0,1,0,27.2,5.492A69.442,69.442,0,0,0,650.5,278.8Z" transform="translate(-575.508 -273.688)" fill="#dcb600"/>
        <path id="Path_137" data-name="Path 137" d="M653.112,419.9a68.392,68.392,0,1,1,26.7-5.391A68.181,68.181,0,0,1,653.112,419.9Zm0-136.356a67.539,67.539,0,1,0,26.372,5.324A67.327,67.327,0,0,0,653.112,283.539Z" transform="translate(-578.031 -276.21)" fill="#dcb600"/>
        <path id="Path_138" data-name="Path 138" d="M655.355,420.008a66.269,66.269,0,1,1,25.874-5.224A66.061,66.061,0,0,1,655.355,420.008Zm0-132.094A65.415,65.415,0,1,0,680.9,293.07,65.207,65.207,0,0,0,655.355,287.913Z" transform="translate(-580.36 -278.539)" fill="#dcb600"/>
        <path id="Path_139" data-name="Path 139" d="M657.963,420.486a64.146,64.146,0,1,1,25.045-5.057A63.937,63.937,0,0,1,657.963,420.486Zm0-127.834a63.289,63.289,0,1,0,24.713,4.989A63.094,63.094,0,0,0,657.963,292.652Z" transform="translate(-582.882 -281.062)" fill="#dcb600"/>
        <path id="Path_140" data-name="Path 140" d="M660.207,420.6a62.017,62.017,0,1,1,24.216-4.889A61.827,61.827,0,0,1,660.207,420.6Zm0-123.572a61.164,61.164,0,1,0,23.884,4.822A60.977,60.977,0,0,0,660.207,297.026Z" transform="translate(-585.211 -283.391)" fill="#dcb600"/>
        <path id="Path_141" data-name="Path 141" d="M662.815,421.076a59.889,59.889,0,1,1,23.387-4.721A59.71,59.71,0,0,1,662.815,421.076Zm0-119.311A59.229,59.229,0,1,0,704.7,319.113,58.843,58.843,0,0,0,662.815,301.765Z" transform="translate(-587.734 -285.914)" fill="#dcb600"/>
      </g>
      <g id="Group_33" data-name="Group 33" transform="translate(591.407 294.769)">
        <path id="Path_128" data-name="Path 128" d="M669.975,423.5a1.977,1.977,0,0,0,1.22-.392,1.377,1.377,0,0,0,.523-1.176V382.2a1.154,1.154,0,0,0-.523-1.089,2.379,2.379,0,0,0-1.22-.305v-1.568H686.27v1.568a1.918,1.918,0,0,0-.915.262.843.843,0,0,0-.479.784,2.715,2.715,0,0,0,.349,1.133q.349.7.784,1.481l12.462,22.656,12.548-22.4q.61-1.133.915-1.786a2.831,2.831,0,0,0,.3-1.176q0-.959-1.133-.959v-1.568h16.121v1.568a2.375,2.375,0,0,0-1.22.3,1.154,1.154,0,0,0-.523,1.089v39.736a1.376,1.376,0,0,0,.523,1.176,1.978,1.978,0,0,0,1.22.392v1.568H713.545V423.5q2.353,0,2.353-1.568v-28.93h-.174l-17.515,32.067h-.261l-17.166-32.154h-.174v29.017q0,1.568,2.44,1.568v1.568H669.975Z" transform="translate(-669.123 -378.386)" fill="url(#linear-gradient-5)"/>
        <path id="Path_142" data-name="Path 142" d="M697.744,424.955h-1.278l-15.977-29.927v25.938c0,.214,0,.716,1.587.716h.852v3.273H668.153v-3.289l.868.016a1.128,1.128,0,0,0,.694-.223c.057-.043.18-.135.18-.493V381.23c0-.2-.034-.314-.1-.353a1.524,1.524,0,0,0-.771-.189l-.872.02v-3.292h18v3.25l-.829.022a1.066,1.066,0,0,0-.507.145l-.056.03a1.87,1.87,0,0,0,.235.729l.022.042c.226.451.484.939.767,1.449L697.506,404.4l11.8-21.056c.39-.724.691-1.31.886-1.73l.013-.026a1.984,1.984,0,0,0,.212-.8.441.441,0,0,0,0-.061.94.94,0,0,0-.275-.031h-.852v-3.272h17.825v3.292l-.872-.02a1.54,1.54,0,0,0-.782.2c-.055.032-.088.151-.088.347v39.735c0,.358.123.45.182.494a1.118,1.118,0,0,0,.692.222l.868-.016v3.289H711.723v-3.273h.852c1.5,0,1.5-.484,1.5-.716V395.055Zm16.1-1.7h11.5a2.841,2.841,0,0,1-.825-.425,2.2,2.2,0,0,1-.866-1.859V381.23a1.959,1.959,0,0,1,.945-1.826,3.283,3.283,0,0,1,.667-.285H711a1.688,1.688,0,0,1,1.119,1.674v.031a3.7,3.7,0,0,1-.39,1.517c-.209.448-.523,1.06-.931,1.818l-13.305,23.747-13.2-24c-.289-.521-.556-1.024-.79-1.491a3.6,3.6,0,0,1-.446-1.467l0-.043a1.7,1.7,0,0,1,.93-1.56,2.8,2.8,0,0,1,.464-.21v-.015H669.989a3.252,3.252,0,0,1,.654.278,1.964,1.964,0,0,1,.957,1.832v39.736a2.206,2.206,0,0,1-.863,1.858,2.851,2.851,0,0,1-.827.426h10.84a2.235,2.235,0,0,1-1.965-2.284V391.1h1.537l16.793,31.455,17.133-31.368h1.532v29.783A2.259,2.259,0,0,1,713.848,423.25Z" transform="translate(-668.153 -377.415)" fill="#6b5301"/>
      </g>
      <g id="Ellipse_50" data-name="Ellipse 50" transform="translate(537.976 236.156)">
        <path id="Path_133" data-name="Path 133" d="M636.81,417.911c-1.061,0-2.136-.02-3.193-.06a1.7,1.7,0,0,1,.129-3.407c1.015.038,2.045.058,3.064.058h.279a1.7,1.7,0,0,1,.006,3.409Zm8.44-.434a1.7,1.7,0,0,1-.173-3.4c1.1-.114,2.216-.253,3.311-.412a1.7,1.7,0,0,1,.491,3.373c-1.141.166-2.3.311-3.452.43A1.734,1.734,0,0,1,645.25,417.478Zm-19.709-.342a1.69,1.69,0,0,1-.237-.016c-1.144-.159-2.3-.344-3.435-.55a1.7,1.7,0,0,1,.61-3.354c1.089.2,2.2.376,3.294.528a1.7,1.7,0,0,1-.232,3.393Zm31.11-1.665a1.7,1.7,0,0,1-.414-3.358c1.073-.269,2.155-.566,3.218-.88a1.7,1.7,0,1,1,.969,3.268c-1.108.329-2.237.638-3.356.919A1.7,1.7,0,0,1,656.652,415.471Zm-42.435-.743a1.7,1.7,0,0,1-.474-.067c-1.109-.321-2.227-.67-3.321-1.037a1.7,1.7,0,1,1,1.084-3.232c1.049.352,2.121.686,3.184.994a1.7,1.7,0,0,1-.473,3.342Zm53.434-2.875A1.7,1.7,0,0,1,667,408.57c1.021-.419,2.048-.866,3.051-1.329a1.7,1.7,0,1,1,1.427,3.1c-1.047.483-2.117.949-3.183,1.386A1.7,1.7,0,0,1,667.651,411.852Zm-64.3-1.13a1.7,1.7,0,0,1-.7-.152c-1.052-.476-2.11-.982-3.145-1.5a1.7,1.7,0,1,1,1.535-3.043c.992.5,2.006.986,3.015,1.442a1.7,1.7,0,0,1-.7,3.258Zm74.658-4.02a1.7,1.7,0,0,1-.867-3.173c.954-.563,1.907-1.152,2.834-1.752a1.7,1.7,0,1,1,1.854,2.861c-.966.626-1.961,1.241-2.955,1.827A1.7,1.7,0,0,1,678.01,406.7Zm-84.844-1.5a1.694,1.694,0,0,1-.916-.268c-.973-.621-1.948-1.272-2.9-1.935a1.7,1.7,0,0,1,1.953-2.794c.909.636,1.844,1.26,2.777,1.856a1.7,1.7,0,0,1-.918,3.141Zm94.368-5.074a1.7,1.7,0,0,1-1.067-3.035c.864-.691,1.725-1.411,2.56-2.138a1.7,1.7,0,1,1,2.239,2.569c-.87.758-1.768,1.509-2.668,2.23A1.7,1.7,0,0,1,687.535,400.128Zm-103.662-1.837a1.7,1.7,0,0,1-1.111-.412c-.874-.752-1.746-1.534-2.59-2.324a1.7,1.7,0,0,1,2.329-2.49c.809.758,1.645,1.508,2.484,2.229a1.7,1.7,0,0,1-1.112,3Zm112.162-6.02a1.7,1.7,0,0,1-1.242-2.871c.758-.808,1.509-1.642,2.233-2.481a1.7,1.7,0,1,1,2.58,2.228c-.755.874-1.538,1.744-2.328,2.586A1.7,1.7,0,0,1,696.035,392.27Zm-120.381-2.134a1.7,1.7,0,0,1-1.284-.582c-.76-.869-1.512-1.766-2.234-2.665a1.7,1.7,0,1,1,2.657-2.135c.692.862,1.414,1.722,2.143,2.555a1.7,1.7,0,0,1-1.282,2.827Zm127.687-6.849a1.7,1.7,0,0,1-1.394-2.684c.637-.909,1.263-1.841,1.861-2.774a1.7,1.7,0,1,1,2.87,1.84c-.623.972-1.276,1.945-1.94,2.892A1.7,1.7,0,0,1,703.34,383.287ZM568.671,380.9a1.7,1.7,0,0,1-1.431-.776c-.628-.966-1.244-1.959-1.832-2.952a1.7,1.7,0,0,1,2.933-1.737c.564.952,1.155,1.9,1.757,2.831a1.7,1.7,0,0,1-1.427,2.634ZM709.3,373.356a1.7,1.7,0,0,1-1.519-2.475c.5-.988.988-2,1.447-3.012a1.7,1.7,0,0,1,3.1,1.411c-.479,1.055-.988,2.112-1.51,3.143A1.7,1.7,0,0,1,709.3,373.356Zm-146.229-2.579a1.7,1.7,0,0,1-1.548-.989c-.484-1.046-.953-2.115-1.392-3.18a1.7,1.7,0,0,1,3.151-1.3c.421,1.021.87,2.046,1.334,3.049a1.7,1.7,0,0,1-1.545,2.421Zm150.713-8.1a1.706,1.706,0,0,1-1.616-2.25c.355-1.051.691-2.122,1-3.183a1.7,1.7,0,1,1,3.273.952c-.322,1.106-.672,2.223-1.042,3.32A1.705,1.705,0,0,1,713.784,362.674Zm-154.81-2.717a1.7,1.7,0,0,1-1.632-1.217c-.33-1.107-.642-2.236-.924-3.355a1.7,1.7,0,1,1,3.305-.836c.271,1.073.57,2.155.886,3.216a1.706,1.706,0,0,1-1.634,2.192Zm157.716-8.49a1.706,1.706,0,0,1-1.678-2.013c.2-1.09.379-2.2.534-3.293a1.7,1.7,0,0,1,3.376.474c-.161,1.143-.348,2.3-.557,3.435A1.705,1.705,0,0,1,716.689,351.467Zm-160.223-2.812a1.7,1.7,0,0,1-1.684-1.456c-.169-1.141-.315-2.3-.436-3.452a1.7,1.7,0,0,1,3.39-.356c.116,1.1.256,2.216.418,3.31a1.707,1.707,0,0,1-1.689,1.954Zm161.5-8.694H717.9a1.7,1.7,0,0,1-1.636-1.77c.042-1.059.063-2.136.063-3.2v-.139a1.7,1.7,0,1,1,3.409,0v.139c0,1.109-.022,2.231-.066,3.335A1.7,1.7,0,0,1,717.964,339.962Zm-162.37-2.85a1.7,1.7,0,0,1-1.7-1.7q0-.213,0-.426c0-1.014.019-2.041.055-3.051a1.7,1.7,0,1,1,3.407.123c-.035.969-.053,1.954-.053,2.927,0,.137,0,.274,0,.41a1.7,1.7,0,0,1-1.7,1.712Zm162.012-8.721a1.705,1.705,0,0,1-1.694-1.533c-.112-1.1-.248-2.217-.406-3.311a1.7,1.7,0,0,1,3.374-.486c.165,1.141.307,2.3.424,3.453a1.7,1.7,0,0,1-1.523,1.868C717.722,328.388,717.663,328.391,717.606,328.391Zm-161.254-2.83a1.729,1.729,0,0,1-.233-.016,1.7,1.7,0,0,1-1.457-1.92c.157-1.146.34-2.3.545-3.436a1.7,1.7,0,1,1,3.355.6c-.2,1.088-.372,2.2-.522,3.295A1.7,1.7,0,0,1,556.352,325.561Zm159.266-8.574a1.705,1.705,0,0,1-1.652-1.292c-.268-1.074-.562-2.157-.875-3.219a1.7,1.7,0,0,1,3.27-.964c.326,1.108.634,2.237.913,3.358a1.706,1.706,0,0,1-1.655,2.117ZM558.74,314.234a1.706,1.706,0,0,1-1.639-2.176c.318-1.11.665-2.228,1.031-3.323a1.7,1.7,0,1,1,3.234,1.078c-.35,1.05-.683,2.122-.989,3.186A1.705,1.705,0,0,1,558.74,314.234Zm153.28-8.25a1.7,1.7,0,0,1-1.579-1.06c-.417-1.021-.862-2.049-1.323-3.053a1.7,1.7,0,0,1,3.1-1.422c.481,1.048.945,2.119,1.381,3.185a1.7,1.7,0,0,1-1.577,2.349Zm-149.3-2.62a1.7,1.7,0,0,1-1.553-2.4c.475-1.054.979-2.113,1.5-3.147a1.7,1.7,0,1,1,3.046,1.53c-.5.991-.982,2.007-1.437,3.017A1.7,1.7,0,0,1,562.725,303.364Zm144.164-7.747a1.7,1.7,0,0,1-1.471-.841c-.561-.955-1.149-1.91-1.747-2.837a1.7,1.7,0,1,1,2.864-1.848c.624.967,1.237,1.963,1.822,2.958a1.705,1.705,0,0,1-1.468,2.569ZM568.228,293.17a1.7,1.7,0,0,1-1.436-2.62c.62-.975,1.27-1.95,1.93-2.9a1.7,1.7,0,1,1,2.8,1.948c-.633.91-1.256,1.845-1.851,2.78A1.7,1.7,0,0,1,568.228,293.17Zm132.1-7.089a1.7,1.7,0,0,1-1.334-.642c-.689-.864-1.407-1.726-2.134-2.563a1.7,1.7,0,0,1,2.574-2.235c.758.872,1.506,1.771,2.225,2.672a1.7,1.7,0,0,1-1.331,2.767Zm-125.209-2.217a1.7,1.7,0,0,1-1.293-2.814c.751-.877,1.532-1.749,2.32-2.594a1.7,1.7,0,0,1,2.493,2.325c-.756.81-1.5,1.647-2.225,2.488A1.7,1.7,0,0,1,575.123,283.863Zm117.364-6.3a1.7,1.7,0,0,1-1.168-.463c-.808-.761-1.641-1.514-2.477-2.237a1.7,1.7,0,1,1,2.232-2.577c.871.755,1.74,1.539,2.582,2.332a1.7,1.7,0,0,1-1.169,2.945Zm-109.223-1.937a1.7,1.7,0,0,1-1.125-2.986c.867-.761,1.762-1.514,2.661-2.238a1.7,1.7,0,0,1,2.14,2.654c-.862.695-1.72,1.417-2.552,2.147A1.7,1.7,0,0,1,583.264,275.628Zm100.251-5.384a1.694,1.694,0,0,1-.98-.311c-.906-.637-1.838-1.265-2.771-1.865a1.7,1.7,0,0,1,1.844-2.867c.972.625,1.944,1.279,2.889,1.945a1.7,1.7,0,0,1-.983,3.1Zm-91.03-1.615a1.7,1.7,0,0,1-.933-3.132c.966-.63,1.958-1.249,2.949-1.837a1.7,1.7,0,1,1,1.742,2.93c-.95.565-1.9,1.158-2.828,1.762A1.691,1.691,0,0,1,592.486,268.629Zm81.109-4.362a1.7,1.7,0,0,1-.772-.186c-.99-.5-2-.993-3.01-1.453a1.7,1.7,0,0,1,1.416-3.1c1.05.48,2.106.989,3.14,1.515a1.7,1.7,0,0,1-.774,3.224ZM602.6,263.012a1.7,1.7,0,0,1-.72-3.25c1.046-.486,2.115-.956,3.178-1.4a1.7,1.7,0,1,1,1.305,3.149c-1.018.423-2.043.873-3.046,1.34A1.7,1.7,0,0,1,602.6,263.012Zm60.32-3.245a1.7,1.7,0,0,1-.548-.091c-1.048-.355-2.118-.693-3.181-1a1.7,1.7,0,0,1,.958-3.272c1.108.325,2.225.677,3.319,1.048a1.7,1.7,0,0,1-.548,3.319Zm-49.509-.868a1.7,1.7,0,0,1-.49-3.337c1.1-.332,2.233-.645,3.353-.931a1.7,1.7,0,0,1,.842,3.3c-1.074.274-2.155.573-3.214.892A1.7,1.7,0,0,1,613.414,258.9Zm38.309-2.055a1.7,1.7,0,0,1-.313-.029c-1.089-.2-2.2-.383-3.292-.539a1.7,1.7,0,0,1,.48-3.375c1.143.163,2.3.352,3.433.563a1.7,1.7,0,0,1-.309,3.381Zm-27.012-.471a1.7,1.7,0,0,1-.25-3.39c1.14-.17,2.3-.319,3.451-.442a1.7,1.7,0,1,1,.361,3.39c-1.1.118-2.216.26-3.309.424A1.74,1.74,0,0,1,624.71,256.373Zm15.508-.825h-.071c-1.287-.053-2.59-.076-3.882-.067h-.012a1.7,1.7,0,0,1-.011-3.409c1.342-.009,2.7.015,4.045.07a1.7,1.7,0,0,1-.069,3.407Z" transform="translate(-553.889 -252.069)" fill="#dcb600"/>
        <path id="Path_143" data-name="Path 143" d="M670.383,422c-1.061,0-2.132-.032-3.187-.094a1.7,1.7,0,1,1,.2-3.4c1.09.064,2.2.094,3.295.087h.011a1.7,1.7,0,0,1,.01,3.409Zm8.459-.688a1.7,1.7,0,0,1-.275-3.386c1.081-.178,2.168-.394,3.231-.642a1.7,1.7,0,0,1,.775,3.32c-1.136.265-2.3.5-3.452.686A1.712,1.712,0,0,1,678.842,421.309Zm-19.636-.523a1.69,1.69,0,0,1-.368-.04c-1.14-.251-2.288-.544-3.41-.871a1.7,1.7,0,1,1,.952-3.273c1.051.306,2.125.58,3.192.815a1.7,1.7,0,0,1-.365,3.369Zm30.764-2.625a1.7,1.7,0,0,1-.646-3.283c1.01-.413,2.02-.866,3-1.347a1.7,1.7,0,0,1,1.5,3.063c-1.049.513-2.128,1-3.207,1.439A1.7,1.7,0,0,1,689.969,418.161Zm-41.71-1.12a1.7,1.7,0,0,1-.729-.164c-1.056-.5-2.11-1.044-3.133-1.613a1.7,1.7,0,0,1,1.66-2.978c.957.534,1.943,1.042,2.932,1.51a1.7,1.7,0,0,1-.731,3.245Zm51.847-4.43a1.7,1.7,0,0,1-.982-3.1c.895-.629,1.78-1.3,2.631-1.982a1.7,1.7,0,0,1,2.139,2.654c-.909.733-1.854,1.445-2.81,2.117A1.693,1.693,0,0,1,700.106,412.612Zm-61.681-1.663a1.7,1.7,0,0,1-1.053-.365c-.919-.723-1.826-1.485-2.694-2.266a1.7,1.7,0,1,1,2.279-2.535c.814.731,1.662,1.445,2.523,2.122a1.7,1.7,0,0,1-1.055,3.044Zm70.338-6A1.7,1.7,0,0,1,707.5,402.1c.734-.811,1.451-1.658,2.13-2.517A1.7,1.7,0,0,1,712.3,401.7c-.725.917-1.491,1.821-2.274,2.687A1.7,1.7,0,0,1,708.763,404.951Zm-78.574-2.118a1.7,1.7,0,0,1-1.325-.631c-.737-.908-1.451-1.851-2.126-2.8a1.7,1.7,0,1,1,2.783-1.969c.631.892,1.3,1.775,1.99,2.625a1.7,1.7,0,0,1-1.322,2.779Zm85.327-7.271a1.7,1.7,0,0,1-1.485-2.539c.537-.956,1.048-1.941,1.519-2.928a1.7,1.7,0,0,1,3.076,1.469c-.5,1.054-1.049,2.106-1.623,3.127A1.7,1.7,0,0,1,715.517,395.562ZM623.954,393.1a1.7,1.7,0,0,1-1.53-.951c-.516-1.047-1-2.125-1.449-3.2a1.7,1.7,0,0,1,3.151-1.3c.417,1.01.873,2.018,1.356,3a1.705,1.705,0,0,1-1.528,2.458Zm96.061-8.2a1.706,1.706,0,0,1-1.636-2.186c.309-1.049.586-2.122.825-3.189a1.7,1.7,0,0,1,3.327.744c-.255,1.141-.552,2.287-.881,3.408A1.706,1.706,0,0,1,720.015,384.9Zm-99.974-2.676a1.7,1.7,0,0,1-1.657-1.313c-.269-1.137-.5-2.3-.7-3.45a1.7,1.7,0,0,1,3.362-.563c.181,1.078.4,2.165.652,3.229a1.707,1.707,0,0,1-1.66,2.1Zm101.974-8.712c-.036,0-.071,0-.107,0a1.7,1.7,0,0,1-1.6-1.806c.064-1.039.1-2.1.1-3.14v-.154a1.7,1.7,0,0,1,3.409-.011v.16c0,1.119-.035,2.247-.1,3.356A1.7,1.7,0,0,1,722.014,373.513Zm-103.359-2.767a1.7,1.7,0,0,1-1.7-1.689q0-.247,0-.495c0-1,.028-2.022.084-3.022a1.7,1.7,0,0,1,3.4.19c-.052.937-.079,1.89-.079,2.833q0,.233,0,.463a1.7,1.7,0,0,1-1.689,1.719Zm102.793-8.781a1.7,1.7,0,0,1-1.681-1.433c-.174-1.081-.387-2.169-.632-3.233a1.7,1.7,0,1,1,3.322-.765c.261,1.137.489,2.3.675,3.454a1.706,1.706,0,0,1-1.685,1.976Zm-101.616-2.721a1.725,1.725,0,0,1-.363-.039,1.7,1.7,0,0,1-1.3-2.027c.248-1.142.537-2.29.86-3.414a1.7,1.7,0,0,1,3.276.942c-.3,1.051-.573,2.126-.805,3.195A1.7,1.7,0,0,1,619.832,359.244Zm98.505-8.414a1.7,1.7,0,0,1-1.58-1.064c-.411-1.012-.861-2.024-1.337-3.006a1.7,1.7,0,0,1,3.067-1.488c.509,1.05.99,2.13,1.429,3.212a1.7,1.7,0,0,1-1.579,2.345Zm-94.8-2.541a1.705,1.705,0,0,1-1.541-2.43c.5-1.058,1.037-2.114,1.6-3.138a1.7,1.7,0,0,1,2.982,1.651c-.531.959-1.036,1.947-1.5,2.937A1.705,1.705,0,0,1,623.54,348.289Zm89.281-7.612a1.7,1.7,0,0,1-1.4-.729c-.626-.9-1.29-1.783-1.974-2.637a1.7,1.7,0,1,1,2.661-2.131c.73.912,1.44,1.859,2.108,2.816a1.7,1.7,0,0,1-1.4,2.681ZM629.6,338.436a1.7,1.7,0,0,1-1.342-2.754c.72-.921,1.48-1.829,2.258-2.7a1.7,1.7,0,0,1,2.542,2.271c-.729.816-1.44,1.667-2.114,2.53A1.7,1.7,0,0,1,629.6,338.436Zm75.581-6.442a1.7,1.7,0,0,1-1.147-.443c-.81-.737-1.655-1.457-2.51-2.138a1.7,1.7,0,1,1,2.124-2.666c.913.727,1.814,1.495,2.68,2.282a1.7,1.7,0,0,1-1.148,2.965ZM637.7,330.173a1.7,1.7,0,0,1-1.079-3.025c.9-.739,1.846-1.457,2.8-2.134a1.7,1.7,0,1,1,1.978,2.776c-.89.635-1.772,1.307-2.619,2A1.7,1.7,0,0,1,637.7,330.173Zm58.12-4.961a1.7,1.7,0,0,1-.838-.222c-.953-.539-1.936-1.053-2.923-1.528a1.7,1.7,0,0,1,1.479-3.072c1.054.507,2.1,1.056,3.123,1.632a1.7,1.7,0,0,1-.841,3.189Zm-48.406-1.3a1.7,1.7,0,0,1-.759-3.231c1.046-.519,2.122-1.01,3.2-1.459a1.7,1.7,0,0,1,1.311,3.147c-1.008.42-2.015.879-2.994,1.365A1.692,1.692,0,0,1,647.409,323.907Zm37.761-3.225a1.692,1.692,0,0,1-.487-.072c-1.047-.312-2.119-.592-3.187-.835a1.7,1.7,0,0,1,.754-3.325c1.141.259,2.286.559,3.405.892a1.7,1.7,0,0,1-.486,3.339Zm-26.9-.719a1.7,1.7,0,0,1-.4-3.362c1.136-.273,2.3-.511,3.448-.707a1.7,1.7,0,0,1,.574,3.36c-1.078.184-2.164.407-3.227.662A1.727,1.727,0,0,1,658.271,319.963Zm15.519-1.316c-.037,0-.074,0-.112,0-1.293-.084-2.607-.118-3.911-.1a1.7,1.7,0,1,1-.041-3.409c1.386-.017,2.793.02,4.173.11a1.7,1.7,0,0,1-.109,3.405Z" transform="translate(-587.462 -285.641)" fill="#dcb600"/>
      </g>
    </g>
    <line id="Line_6" data-name="Line 6" x2="68" y2="69" transform="translate(443.5 -3.5)" fill="none" stroke="#ffcf00" stroke-linecap="round" stroke-width="8"/>
    <g id="Group_40" data-name="Group 40" transform="translate(-302.5 187.5)">
      <ellipse id="Ellipse_63" data-name="Ellipse 63" cx="205.744" cy="205.745" rx="205.744" ry="205.745" transform="translate(466.595 233.595)" fill="url(#linear-gradient-6)"/>
      <g id="Group_35" data-name="Group 35" transform="translate(440.5 208.5)">
        <path id="Path_145" data-name="Path 145" d="M672.839,673.177C544.727,673.177,440.5,568.95,440.5,440.839S544.727,208.5,672.839,208.5,905.177,312.727,905.177,440.839,800.95,673.177,672.839,673.177Zm0-457.923c-124.388,0-225.585,101.2-225.585,225.585s101.2,225.585,225.585,225.585,225.585-101.2,225.585-225.585S797.226,215.254,672.839,215.254Z" transform="translate(-440.5 -208.5)" fill="#ffcf00"/>
        <circle id="Ellipse_53" data-name="Ellipse 53" cx="14.526" cy="14.526" r="14.526" transform="translate(414.263 101.602)" fill="#ffcf00"/>
        <circle id="Ellipse_54" data-name="Ellipse 54" cx="14.526" cy="14.526" r="14.526" transform="translate(78.084 397.661)" fill="#ffcf00"/>
      </g>
      <circle id="Ellipse_55" data-name="Ellipse 55" cx="199.244" cy="199.244" r="199.244" transform="translate(473.595 241.595)" fill="#e6b800"/>
      <g id="Group_37" data-name="Group 37" transform="translate(552.171 262.231)">
        <g id="Group_36" data-name="Group 36">
          <path id="Path_146" data-name="Path 146" d="M526.9,285.628a3.071,3.071,0,0,0,1.186.79,4.99,4.99,0,0,0,1.529.328,5.39,5.39,0,0,0,1.562-.131,2.892,2.892,0,0,0,1.263-.621.5.5,0,0,0,.188-.417.779.779,0,0,0-.212-.477l.516-.443,2.845,3.327-.5.432q-.452-.523-.87-.159a3.226,3.226,0,0,0-.814,1.122,4.152,4.152,0,0,0-.363,1.429,4.02,4.02,0,0,0,.181,1.491,3.626,3.626,0,0,0,.8,1.374q.387.426.87-.012l.462.515c-1.218,1.1-1.824,1.66-3.022,2.8l-.475-.5c.316-.3.344-.589.081-.869a3.346,3.346,0,0,0-1.32-.866,4.313,4.313,0,0,0-1.53-.267,4.516,4.516,0,0,0-1.459.258,3.117,3.117,0,0,0-1.152.7c-.267.263-.239.561.085.887l-.477.476-3.1-3.1c.2-.2.294-.293.49-.488a.844.844,0,0,0,.447.259.5.5,0,0,0,.447-.172,2.881,2.881,0,0,0,.7-1.2,5.428,5.428,0,0,0,.258-1.555,5.933,5.933,0,0,0-.176-1.582,2.832,2.832,0,0,0-.667-1.272q-.4-.419-.905.063l-.475-.5c1.3-1.232,1.952-1.837,3.273-3.03l.462.513Q526.508,285.2,526.9,285.628Z" transform="translate(-523.17 -235.669)" fill="#846804"/>
          <path id="Path_147" data-name="Path 147" d="M545.292,290.976a1.014,1.014,0,0,0,.29-.82,8.756,8.756,0,0,0-.141-1.077c-1.317-6.38-1.867-9.618-2.739-16.166q-.047-.563-.1-1.033a1.7,1.7,0,0,0-.216-.728.565.565,0,0,0-.515-.309,2.234,2.234,0,0,0-.611.119l-.374-.582c2.194-1.417,3.3-2.1,5.534-3.431l.354.594a3.106,3.106,0,0,0-.353.457.559.559,0,0,0,.058.615,1.554,1.554,0,0,0,.43.459c.181.13.434.292.755.488,5.9,3.759,8.752,5.746,14.221,9.907a1.289,1.289,0,0,0,.7.324,7.5,7.5,0,0,0,.767.028l.323.611c-2.109,1.114-3.156,1.693-5.229,2.891l-.346-.6a.736.736,0,0,0,.238-.272.372.372,0,0,0,.007-.4,2.575,2.575,0,0,0-.736-.729c-1.021-.724-1.534-1.083-2.569-1.794-2.958,1.734-4.42,2.645-7.3,4.548.174,1.193.266,1.787.456,2.973a3.437,3.437,0,0,0,.354,1.15c.158.235.417.228.781-.015l.384.575c-1.621,1.085-2.425,1.641-4.02,2.78Zm7.2-13.247c-2.5-1.837-3.765-2.739-6.339-4.5.313,3.17.5,4.748.92,7.883C549.224,279.712,550.308,279.036,552.5,277.729Z" transform="translate(-516.954 -241.727)" fill="#846804"/>
          <path id="Path_148" data-name="Path 148" d="M559.023,262.7c-.5.231-.658.558-.463.975,1.944,4.181,2.916,6.27,4.86,10.45a3.689,3.689,0,0,0,2.672,2.429,10.194,10.194,0,0,0,7.51-3.188,3.692,3.692,0,0,0,.1-3.605c-1.659-4.3-2.487-6.451-4.144-10.752-.166-.431-.6-.512-1.3-.236l-.253-.644c2.252-.883,3.384-1.3,5.657-2.109l.231.652q-.849.3-.615.954c1.534,4.264,2.3,6.4,3.838,10.662a10.445,10.445,0,0,1,.721,3.721,5.513,5.513,0,0,1-.808,2.816,6.717,6.717,0,0,1-2.223,2.134,29.808,29.808,0,0,1-7.209,3.066,6.785,6.785,0,0,1-3.1.13,5.511,5.511,0,0,1-2.6-1.364,10.319,10.319,0,0,1-2.19-3.1l-5.028-10.155c-.205-.413-.625-.463-1.258-.145l-.312-.619c2.234-1.124,3.359-1.664,5.623-2.7Z" transform="translate(-512.667 -245.563)" fill="#846804"/>
          <path id="Path_149" data-name="Path 149" d="M587.476,271.488a.633.633,0,0,0,.882.49l.169.67c-1.986.5-2.976.76-4.948,1.321l-.19-.665a.6.6,0,0,0,.355-.281.68.68,0,0,0,.037-.548c-1.655-5.887-2.483-8.83-4.139-14.717-2.337.655-3.5,1-5.821,1.741a1.22,1.22,0,0,0-.555.38.785.785,0,0,0-.072.79l-.628.205c-.673-2.044-1.009-3.065-1.683-5.109l.647-.211a.783.783,0,0,0,.531.6,1.267,1.267,0,0,0,.686-.019,148.553,148.553,0,0,1,16.083-4.3,1.253,1.253,0,0,0,.6-.326.785.785,0,0,0,.159-.779c.265-.057.4-.085.662-.139.44,2.1.662,3.158,1.1,5.263l-.643.135a.787.787,0,0,0-.456-.648,1.194,1.194,0,0,0-.669-.053c-2.365.516-3.545.794-5.894,1.393C585.206,262.6,585.962,265.562,587.476,271.488Z" transform="translate(-506.432 -247.467)" fill="#846804"/>
          <path id="Path_150" data-name="Path 150" d="M605.975,250.386q-.057-.691-.871-.62l-.061-.69c2.288-.2,3.435-.28,5.727-.405l.038.69a.694.694,0,0,0-.454.2.638.638,0,0,0-.173.53c.412,6.962.616,10.443,1.028,17.405a.681.681,0,0,0,.212.507.588.588,0,0,0,.424.15l.039.69c-2.033.111-3.049.184-5.078.361l-.061-.689q.727-.063.671-.751c-.239-2.879-.359-4.317-.6-7.194-4.475.369-6.708.628-11.155,1.3L596.746,269a.677.677,0,0,0,.258.485.584.584,0,0,0,.436.111l.1.684c-1.978.29-2.966.451-4.936.8l-.123-.681c.415-.074.584-.336.5-.79l-3.019-17.174a.618.618,0,0,0-.817-.558l-.122-.681c2.221-.4,3.335-.578,5.565-.906l.1.685a.7.7,0,0,0-.434.239.637.637,0,0,0-.124.543c.39,2.583.586,3.873.977,6.456,4.544-.684,6.827-.95,11.4-1.327C606.3,254.289,606.191,252.987,605.975,250.386Z" transform="translate(-500.066 -248.139)" fill="#846804"/>
          <path id="Path_151" data-name="Path 151" d="M628.175,253.328a.714.714,0,0,0-.255-.658,1.983,1.983,0,0,0-1.058-.3c-4.728-.369-7.1-.473-11.837-.521-.02,1.9-.03,2.857-.05,4.762,2.789.028,4.183.072,6.969.213a2.41,2.41,0,0,0,1.114-.15q.4-.188.458-1.07l.643.039c-.153,2.392-.23,3.588-.382,5.979-.248-.016-.373-.023-.621-.038q.053-.881-.315-1.154a1.969,1.969,0,0,0-1.066-.308c-2.733-.139-4.1-.182-6.834-.211-.023,2.121-.034,3.18-.055,5.3,4.512.046,6.769.149,11.27.508a1.258,1.258,0,0,0,.848-.2.9.9,0,0,0,.384-.7l.609.054c-.19,2.1-.286,3.145-.478,5.24l-.59-.051c.034-.382-.051-.609-.255-.678a3.456,3.456,0,0,0-.8-.143,132.648,132.648,0,0,0-15.384-.482l-.012-.692a.593.593,0,0,0,.412-.178.681.681,0,0,0,.176-.521c-.093-6.974-.139-10.461-.234-17.433a.64.64,0,0,0-.211-.516.7.7,0,0,0-.466-.166l-.012-.692a149.674,149.674,0,0,1,16.98.516,1.843,1.843,0,0,0,1.117-.159.815.815,0,0,0,.374-.643c.269.023.4.034.671.058-.181,2.021-.273,3.03-.454,5.049C628.566,253.361,628.437,253.349,628.175,253.328Z" transform="translate(-492.66 -248.277)" fill="#846804"/>
          <path id="Path_152" data-name="Path 152" d="M626.888,268.829c.417.051.656-.15.715-.607.885-6.919,1.328-10.377,2.214-17.3a.616.616,0,0,0-.613-.773l.085-.688c2.533.312,3.8.492,6.32.894l-.109.684c-.2-.032-.315.08-.355.332q-.047.3.561,1.178a138.343,138.343,0,0,1,7.889,13.176l2.688-11.914c.1-.45-.164-.746-.794-.883l.149-.677c2.209.484,3.31.743,5.5,1.3l-.17.67a.618.618,0,0,0-.855.5l-4.214,16.92c-.112.448.038.721.448.825l-.17.67c-2.088-.527-3.135-.773-5.237-1.227l.146-.677c.282.062.449-.02.5-.245a1.793,1.793,0,0,0-.335-.977,135.854,135.854,0,0,0-8.244-13.915c-.759,5.044-1.14,7.564-1.9,12.608-.069.457.149.721.652.8l-.105.684c-1.937-.3-2.908-.435-4.852-.674Z" transform="translate(-486.815 -247.86)" fill="#846804"/>
          <path id="Path_153" data-name="Path 153" d="M653.877,275.074a.634.634,0,0,0,.462.9l-.236.65c-1.937-.7-2.91-1.036-4.864-1.674l.216-.656a.6.6,0,0,0,.451-.034.685.685,0,0,0,.339-.435c1.921-5.806,2.883-8.709,4.8-14.514-2.313-.763-3.474-1.124-5.806-1.8a1.208,1.208,0,0,0-.671.005.789.789,0,0,0-.5.616c-.253-.073-.38-.108-.634-.18.586-2.071.878-3.106,1.464-5.175.261.073.392.111.652.185a.778.778,0,0,0,.107.789,1.246,1.246,0,0,0,.577.367,148.09,148.09,0,0,1,15.811,5.436,1.282,1.282,0,0,0,.686.068.785.785,0,0,0,.573-.557l.634.257c-.813,1.992-1.221,2.988-2.034,4.979l-.616-.25a.785.785,0,0,0-.018-.794,1.233,1.233,0,0,0-.531-.419c-2.272-.9-3.415-1.335-5.713-2.155C656.969,266.439,655.938,269.317,653.877,275.074Z" transform="translate(-479.577 -246.699)" fill="#846804"/>
          <path id="Path_154" data-name="Path 154" d="M659.79,277.462c.536.235.9.145,1.085-.276l7.107-15.927c.189-.421-.016-.766-.616-1.029l.278-.634c2.306,1.013,3.451,1.541,5.726,2.638l-.3.624c-.593-.286-.987-.217-1.186.2-3,6.3-4.494,9.449-7.492,15.749-.2.416-.031.75.5,1.005l-.3.623c-2.017-.973-3.033-1.441-5.078-2.34Z" transform="translate(-475.34 -244.306)" fill="#846804"/>
          <path id="Path_155" data-name="Path 155" d="M684.191,288.337a.912.912,0,0,1-.147-.124.855.855,0,0,0-.147-.126,2.971,2.971,0,0,0-1.082-.184c-.605-.041-1.347-.124-2.222-.244a18.167,18.167,0,0,1-2.81-.638,12.58,12.58,0,0,1-2.893-1.31,15.177,15.177,0,0,1-3.238-2.635,10.572,10.572,0,0,1-2.136-3.378,9.691,9.691,0,0,1-.643-3.985,10.5,10.5,0,0,1,1.263-4.412,9.829,9.829,0,0,1,2.915-3.526,8.967,8.967,0,0,1,3.855-1.616,10.987,10.987,0,0,1,4.356.2,15.008,15.008,0,0,1,4.329,1.81,17.217,17.217,0,0,1,2.865,2.152,27.378,27.378,0,0,1,1.987,2.072,14.027,14.027,0,0,1,1.2,1.593,3.5,3.5,0,0,0,.528.731.39.39,0,0,0,.377.026c.146-.055.263-.1.349-.134.086.284.13.426.215.709-2.045.844-3.057,1.281-5.057,2.179l-.161-.431a1.556,1.556,0,0,0,.112-.2c.032-.069.065-.157.1-.254a1.494,1.494,0,0,0-.15-1.136,7.459,7.459,0,0,0-.978-1.578,15.78,15.78,0,0,0-1.479-1.624,9.7,9.7,0,0,0-1.633-1.283,9.466,9.466,0,0,0-2.843-1.166,7.11,7.11,0,0,0-2.845-.09,6.277,6.277,0,0,0-2.531,1.068,6.555,6.555,0,0,0-1.963,2.272,6.886,6.886,0,0,0-.887,2.868,6.762,6.762,0,0,0,.339,2.679,7.125,7.125,0,0,0,1.357,2.338,9.06,9.06,0,0,0,2.171,1.837,10.859,10.859,0,0,0,2.141.992,14.584,14.584,0,0,0,2.283.6,7.649,7.649,0,0,0,1.98.108,1.5,1.5,0,0,0,1.164-.492.761.761,0,0,0,.138-.463l.589.026c-.126,1.882-.2,2.819-.369,4.686Z" transform="translate(-472.06 -242.05)" fill="#846804"/>
          <path id="Path_156" data-name="Path 156" d="M703.434,287.706a3.1,3.1,0,0,0-.694,1.245,4.94,4.94,0,0,0-.2,1.556,5.369,5.369,0,0,0,.257,1.553,2.952,2.952,0,0,0,.729,1.223.511.511,0,0,0,.435.161.778.778,0,0,0,.459-.247c.2.195.294.292.49.488l-3.1,3.1-.477-.476c.324-.327.353-.624.085-.887a3.281,3.281,0,0,0-1.193-.735,4.135,4.135,0,0,0-1.459-.259,4.024,4.024,0,0,0-1.476.292,3.606,3.606,0,0,0-1.306.906q-.4.417.081.869l-.477.5c-1.2-1.137-1.8-1.7-3.022-2.8l.463-.513q.482.436.87.011a3.364,3.364,0,0,0,.762-1.383,4.311,4.311,0,0,0,.151-1.544,4.473,4.473,0,0,0-.363-1.428,3.032,3.032,0,0,0-.773-1.086q-.417-.365-.87.161l-.5-.434,2.845-3.327.516.443a.88.88,0,0,0-.226.465.494.494,0,0,0,.2.43,2.863,2.863,0,0,0,1.235.6,5.434,5.434,0,0,0,1.562.13,5.915,5.915,0,0,0,1.559-.3,2.829,2.829,0,0,0,1.214-.765c.258-.284.215-.584-.131-.9l.463-.513c1.32,1.191,1.975,1.8,3.272,3.03l-.475.5Q703.83,287.285,703.434,287.706Z" transform="translate(-463.836 -235.662)" fill="#846804"/>
        </g>
      </g>
      <ellipse id="Ellipse_62" data-name="Ellipse 62" cx="140.744" cy="140.745" rx="140.744" ry="140.745" transform="translate(531.595 298.595)" fill="url(#linear-gradient-7)"/>
      <circle id="Ellipse_56" data-name="Ellipse 56" cx="134.405" cy="134.405" r="134.405" transform="translate(538.433 305.083)" fill="url(#linear-gradient-8)"/>
      <g id="Group_39" data-name="Group 39" transform="translate(562.039 562.666)">
        <g id="Group_38" data-name="Group 38">
          <path id="Path_158" data-name="Path 158" d="M540.784,474.079a3.11,3.11,0,0,0-.37,1.366,5.587,5.587,0,0,0,.153,1.633,6.369,6.369,0,0,0,.6,1.575,3.469,3.469,0,0,0,.964,1.158.461.461,0,0,0,.435.095.624.624,0,0,0,.353-.328l.567.417-1.972,3.711-.578-.425a.658.658,0,0,0-.167-.942,3.723,3.723,0,0,0-1.306-.616,3.983,3.983,0,0,0-1.436-.111,3.266,3.266,0,0,0-1.324.447,2.813,2.813,0,0,0-1.019,1.071c-.181.319-.077.631.311.931-.128.231-.193.346-.323.577-1.479-1.143-2.215-1.726-3.678-2.912l.334-.569q.576.466.854-.008a3.255,3.255,0,0,0,.422-1.521,5.479,5.479,0,0,0-.186-1.668,6.42,6.42,0,0,0-.631-1.526,4.252,4.252,0,0,0-.939-1.16q-.466-.393-.809.166c-.224-.189-.335-.285-.559-.476l2.188-3.538.548.466a.845.845,0,0,0-.141.5.623.623,0,0,0,.257.453,2.861,2.861,0,0,0,1.254.6,4.326,4.326,0,0,0,2.851-.354,2.278,2.278,0,0,0,.97-.892c.185-.316.094-.621-.269-.916l.334-.569c1.376,1.117,2.069,1.666,3.462,2.741l-.323.578Q541.056,473.6,540.784,474.079Z" transform="translate(-530.475 -470.683)" fill="#846804"/>
          <path id="Path_159" data-name="Path 159" d="M547.441,497.6l.265-.616c.852.505,1.368.546,1.541.134l6.581-15.609c.174-.413-.132-.844-.914-1.309l.265-.616c4.452,2.639,6.709,3.863,11.274,6.115a11.126,11.126,0,0,1,4.5,3.6,5.74,5.74,0,0,1,.438,5.14c-.647,2.037-1.733,3.211-3.269,3.486a9.291,9.291,0,0,1-5.615-1.187c-2.756-1.359-4.124-2.072-6.842-3.565-.985,2.473-1.476,3.711-2.461,6.185-.166.417.122.832.87,1.236l-.246.627C551.256,499.828,549.978,499.1,547.441,497.6Zm16.634-3.92a3.924,3.924,0,0,0,2.068.459c.635-.057,1.106-.54,1.413-1.444a2.274,2.274,0,0,0-.163-2.184,4.617,4.617,0,0,0-1.707-1.363c-2.811-1.378-4.206-2.1-6.977-3.626-.708,1.78-1.062,2.671-1.771,4.45C559.771,491.528,561.2,492.27,564.075,493.679Z" transform="translate(-524.523 -467.569)" fill="#846804"/>
          <path id="Path_160" data-name="Path 160" d="M582.1,491.753a15.118,15.118,0,0,1,2.857,1.228,7.538,7.538,0,0,1,2.055,1.67,5.264,5.264,0,0,1,1.105,2.2,6.713,6.713,0,0,1-.018,2.85,4.633,4.633,0,0,1-2.123,3.395,6.71,6.71,0,0,1-4.094.658c1.263,3.4,1.929,5.1,3.327,8.471a1.136,1.136,0,0,0,.521.615,3.348,3.348,0,0,0,.632.249l-.13.673c-2.776-.736-4.161-1.135-6.918-1.992.059-.266.091-.4.15-.667a1.371,1.371,0,0,0,.594.066c.176-.026.277-.1.305-.226a.94.94,0,0,0-.051-.471c-.062-.19-.161-.451-.294-.785-1.087-2.811-1.607-4.221-2.6-7.047-2.025-.681-3.034-1.037-5.045-1.787-.7,2.6-1.055,3.905-1.757,6.51a.634.634,0,0,0,.1.581,1.8,1.8,0,0,0,.81.48l-.174.659c-2.526-.921-3.785-1.408-6.291-2.432l.195-.652c.7.285,1.11.207,1.237-.23,1.918-6.592,2.877-9.889,4.8-16.481.126-.436-.132-.779-.773-1.042l.195-.652C575.229,489.44,577.509,490.272,582.1,491.753Zm-2.935,8.359a9.1,9.1,0,0,0,2.146.473,3.46,3.46,0,0,0,1.46-.163,1.937,1.937,0,0,0,.889-.663,2.717,2.717,0,0,0,.447-1.033,3.028,3.028,0,0,0,.031-1.159,2.478,2.478,0,0,0-.5-1.081,4.116,4.116,0,0,0-1.172-.978,10.171,10.171,0,0,0-2-.862c-2.356-.775-3.53-1.187-5.868-2.057L573.14,498C575.541,498.894,576.745,499.317,579.165,500.112Z" transform="translate(-518.342 -464.759)" fill="#846804"/>
          <path id="Path_161" data-name="Path 161" d="M598.37,494.693a14.18,14.18,0,0,1,3.78,1.187,13.1,13.1,0,0,1,3.434,2.325,10.961,10.961,0,0,1,2.469,3.462,9.611,9.611,0,0,1,.779,4.666,8.822,8.822,0,0,1-1.386,4.475,9.314,9.314,0,0,1-3.089,2.906,10.874,10.874,0,0,1-4.058,1.36,14.9,14.9,0,0,1-4.271-.043,15.446,15.446,0,0,1-4.131-1.29,12.071,12.071,0,0,1-3.611-2.577,10.532,10.532,0,0,1-2.33-3.765,9.223,9.223,0,0,1-.327-4.748,8.949,8.949,0,0,1,1.811-4.254,9.69,9.69,0,0,1,3.172-2.568,11.939,11.939,0,0,1,3.843-1.168A13.641,13.641,0,0,1,598.37,494.693Zm-.4,3.5a8.484,8.484,0,0,0-2.7.012,7.972,7.972,0,0,0-2.568.867,6.477,6.477,0,0,0-2.042,1.755,5.732,5.732,0,0,0-1.1,2.695,5.972,5.972,0,0,0,.259,2.974,7.118,7.118,0,0,0,1.5,2.457,8.75,8.75,0,0,0,2.345,1.771,8.966,8.966,0,0,0,2.754.925,8.583,8.583,0,0,0,2.865-.035,7.793,7.793,0,0,0,2.657-.977,6.276,6.276,0,0,0,2-1.9,5.689,5.689,0,0,0,.923-2.788,6.133,6.133,0,0,0-.449-2.939,7.325,7.325,0,0,0-1.568-2.327,9.086,9.086,0,0,0-4.878-2.49Z" transform="translate(-511.184 -462.324)" fill="#846804"/>
          <path id="Path_162" data-name="Path 162" d="M618.459,496.238a10.725,10.725,0,0,1,3.559.492,7.911,7.911,0,0,1,2.942,1.7,8.827,8.827,0,0,1,2.1,3,12.725,12.725,0,0,1,.971,4.4,12.276,12.276,0,0,1-.473,4.516,8.565,8.565,0,0,1-1.88,3.285,8.234,8.234,0,0,1-3.025,2.03,11.2,11.2,0,0,1-3.859.744c-5.026.113-7.542.076-12.565-.189l.027-.689q.867.044.89-.647c.24-6.961.361-10.442.6-17.4.015-.459-.242-.7-.773-.728l.026-.69C611.58,496.307,613.875,496.341,618.459,496.238Zm-1.216,16.9a12.522,12.522,0,0,0,3.053-.375,4.653,4.653,0,0,0,2.123-1.177,4.8,4.8,0,0,0,1.2-2.151,10.891,10.891,0,0,0,.289-3.319,11.183,11.183,0,0,0-.543-3.273,4.862,4.862,0,0,0-1.3-2.029,4.448,4.448,0,0,0-2.072-1.013,12.94,12.94,0,0,0-2.883-.242c-2.175.03-3.262.024-5.437-.022-.085,5.43-.128,8.145-.213,13.577C613.773,513.166,614.931,513.17,617.244,513.139Z" transform="translate(-503.901 -461.787)" fill="#846804"/>
          <path id="Path_163" data-name="Path 163" d="M630.745,496.444c-.507.074-.735.336-.688.793.471,4.571.706,6.855,1.178,11.427.166,1.6.774,2.63,1.837,3.074a8.217,8.217,0,0,0,4.49.169,8.736,8.736,0,0,0,4.248-1.732,3.7,3.7,0,0,0,.975-3.577c-.711-4.528-1.066-6.792-1.775-11.32-.072-.453-.448-.6-1.133-.459l-.1-.681c2.183-.455,3.273-.7,5.445-1.24l.122.675c-.544.135-.779.424-.7.875.775,4.435,1.164,6.651,1.94,11.086a9.584,9.584,0,0,1,.019,3.812,5.749,5.749,0,0,1-1.493,2.749,7.941,7.941,0,0,1-2.964,1.847,24.774,24.774,0,0,1-4.323,1.139,24.2,24.2,0,0,1-4.412.416,7.192,7.192,0,0,1-3.292-.734,5.021,5.021,0,0,1-2.113-2.107,9.277,9.277,0,0,1-.946-3.648c-.378-4.5-.569-6.757-.947-11.262-.039-.459-.38-.648-1.024-.578l-.055-.688c2.259-.246,3.386-.392,5.638-.723Z" transform="translate(-497.303 -462.898)" fill="#846804"/>
          <path id="Path_164" data-name="Path 164" d="M667.165,503.1a1.084,1.084,0,0,1-.2.065,1.148,1.148,0,0,0-.2.063,4.25,4.25,0,0,0-.887.858q-.675.768-1.761,1.809a19.5,19.5,0,0,1-2.577,2.049,14.386,14.386,0,0,1-3.25,1.63,15.73,15.73,0,0,1-4.581.914,9.954,9.954,0,0,1-4.169-.666,7.946,7.946,0,0,1-3.218-2.365,9.157,9.157,0,0,1-1.814-4.108,10.593,10.593,0,0,1,.032-4.6,10.846,10.846,0,0,1,1.76-3.85,12.682,12.682,0,0,1,3.043-2.97,16.155,16.155,0,0,1,3.9-2,17.835,17.835,0,0,1,3.157-.835c.973-.151,1.833-.258,2.583-.312a13.636,13.636,0,0,1,1.809-.038,2.736,2.736,0,0,0,.819-.012.409.409,0,0,0,.228-.3c.04-.153.072-.274.095-.366.251.091.377.135.63.224-.5,2.186-.765,3.277-1.316,5.461l-.415-.118a1.3,1.3,0,0,0-.08-.212c-.034-.068-.074-.145-.124-.234a1.293,1.293,0,0,0-.913-.548,6.937,6.937,0,0,0-1.716-.163,16.442,16.442,0,0,0-2.044.162,9.765,9.765,0,0,0-1.9.446,10.131,10.131,0,0,0-2.623,1.382,8.224,8.224,0,0,0-1.987,2.041,7.468,7.468,0,0,0-1.1,2.585,6.972,6.972,0,0,0,.031,3.023,6.1,6.1,0,0,0,1.231,2.656,5.6,5.6,0,0,0,2.107,1.586,6.577,6.577,0,0,0,2.721.507,9.449,9.449,0,0,0,3.016-.558,11.94,11.94,0,0,0,2.338-1.15,15.245,15.245,0,0,0,2.1-1.562,8.769,8.769,0,0,0,1.456-1.624,1.646,1.646,0,0,0,.4-1.275.649.649,0,0,0-.269-.378c.164-.2.245-.294.407-.49,1.38,1.159,2.078,1.732,3.489,2.862C667.282,502.857,667.243,502.939,667.165,503.1Z" transform="translate(-490.556 -464.592)" fill="#846804"/>
          <path id="Path_165" data-name="Path 165" d="M677.656,500.2q.245.628,1.016.208l.249.625c-2.159,1.185-3.245,1.756-5.427,2.86l-.232-.634a.878.878,0,0,0,.382-.382.677.677,0,0,0,.019-.574l-5.18-14.005c-2.167,1.106-3.255,1.638-5.445,2.657a1.361,1.361,0,0,0-.521.448.862.862,0,0,0-.057.809l-.6.274-1.648-5.01c.235-.107.353-.159.586-.267.111.334.28.517.5.551a1.086,1.086,0,0,0,.631-.085,138.406,138.406,0,0,0,14.277-7.516,1.365,1.365,0,0,0,.478-.5.864.864,0,0,0-.012-.809c.227-.135.34-.2.566-.339l2.086,4.778c-.232.14-.349.211-.58.349-.139-.319-.326-.481-.555-.486a1.154,1.154,0,0,0-.636.162c-2.123,1.252-3.193,1.857-5.342,3.023Z" transform="translate(-484.964 -467.944)" fill="#846804"/>
          <path id="Path_166" data-name="Path 166" d="M690.484,472.174a2.477,2.477,0,0,0,.939.916,3.634,3.634,0,0,0,1.349.444,4.278,4.278,0,0,0,1.471-.065,2.939,2.939,0,0,0,1.285-.624.643.643,0,0,0,.242-.44.8.8,0,0,0-.127-.508l.548-.466c.875,1.416,1.314,2.122,2.19,3.538-.224.19-.336.286-.561.476q-.342-.559-.809-.166a4.55,4.55,0,0,0-.985,1.2,5.906,5.906,0,0,0-.632,1.526,5.031,5.031,0,0,0-.147,1.612,3.439,3.439,0,0,0,.462,1.513c.185.316.47.32.854.008l.334.567c-1.463,1.189-2.2,1.771-3.678,2.915l-.323-.577q.582-.452.312-.931a2.618,2.618,0,0,0-1.041-1.031,3.529,3.529,0,0,0-1.382-.425,4.3,4.3,0,0,0-1.436.109,3.488,3.488,0,0,0-1.259.579.658.658,0,0,0-.166.942l-.579.425L685.372,480l.567-.417a.7.7,0,0,0,.336.34.454.454,0,0,0,.45-.107,3.4,3.4,0,0,0,.935-1.133,6.44,6.44,0,0,0,.6-1.575,6.612,6.612,0,0,0,.184-1.657,2.912,2.912,0,0,0-.34-1.39c-.181-.32-.454-.336-.821-.053l-.324-.577c1.393-1.075,2.086-1.624,3.462-2.742l.334.569C690.388,471.552,690.3,471.857,690.484,472.174Z" transform="translate(-476.136 -470.689)" fill="#846804"/>
        </g>
      </g>
    </g>
    <line id="Line_7" data-name="Line 7" y2="399" transform="translate(370.5 -3.5)" fill="none" stroke="#ffcf00" stroke-linecap="round" stroke-width="8"/>
    <line id="Line_8" data-name="Line 8" y2="117" transform="translate(293.5 86.5)" fill="none" stroke="#feca00" stroke-linecap="round" stroke-width="8"/>
    <line id="Line_9" data-name="Line 9" x1="77" y2="76" transform="translate(293.5 10.5)" fill="none" stroke="#ffcf00" stroke-linecap="round" stroke-width="8"/>
    <line id="Line_10" data-name="Line 10" y2="286" transform="translate(347.5 35.5)" fill="none" stroke="#ffcf00" stroke-linecap="round" stroke-width="4"/>
    <circle id="Ellipse_58" data-name="Ellipse 58" cx="8" cy="8" r="8" transform="translate(340 314)" fill="#ffd400"/>
    <line id="Line_11" data-name="Line 11" y2="372" transform="translate(394.5 -3.5)" fill="none" stroke="#ffcf00" stroke-linecap="round" stroke-width="4"/>
    <circle id="Ellipse_59" data-name="Ellipse 59" cx="8" cy="8" r="8" transform="translate(387 361)" fill="#ffd400"/>
    <line id="Line_12" data-name="Line 12" y2="77" transform="translate(491.5 72.5)" fill="none" stroke="#feca00" stroke-linecap="round" stroke-width="4"/>
    <line id="Line_13" data-name="Line 13" x2="76" y2="76" transform="translate(415.5 -3.5)" fill="none" stroke="#ffcf00" stroke-linecap="round" stroke-width="4"/>
    <circle id="Ellipse_60" data-name="Ellipse 60" cx="8" cy="8" r="8" transform="translate(484 145)" fill="#ffd400"/>
    <line id="Line_14" data-name="Line 14" y2="153" transform="translate(417.5 -7.5)" fill="none" stroke="#ffcf00" stroke-linecap="round" stroke-width="4"/>
    <line id="Line_15" data-name="Line 15" x1="23" y2="23" transform="translate(394.5 145.5)" fill="none" stroke="#ffcf00" stroke-linecap="round" stroke-width="4"/>
    <circle id="Ellipse_61" data-name="Ellipse 61" cx="14.526" cy="14.526" r="14.526" transform="translate(279.263 202.602)" fill="#ffcf00"/>
    <line id="Line_16" data-name="Line 16" y2="32" transform="translate(532.5 56.5)" fill="none" stroke="#feca00" stroke-linecap="round" stroke-width="4"/>
    <path id="Path_171" data-name="Path 171" d="M0,0,60,60" transform="translate(472.5 -3.5)" fill="none" stroke="#ffcf00" stroke-linecap="round" stroke-width="4"/>
    <circle id="Ellipse_64" data-name="Ellipse 64" cx="8" cy="8" r="8" transform="translate(525 87)" fill="#ffd400"/>
    <line id="Line_17" data-name="Line 17" y2="32" transform="translate(270.7 79.5)" fill="none" stroke="#feca00" stroke-linecap="round" stroke-width="4"/>
    <path id="Path_172" data-name="Path 172" d="M83.414,0,0,83" transform="translate(270.7 -3.5)" fill="none" stroke="#ffcf00" stroke-linecap="round" stroke-width="4"/>
    <ellipse id="Ellipse_65" data-name="Ellipse 65" cx="8.5" cy="8" rx="8.5" ry="8" transform="translate(262 110)" fill="#ffd400"/>
  </g>
</svg>
