<?xml version="1.0" encoding="UTF-8" standalone="no"?>
<!-- Generator: Adobe Illustrator 19.2.1, SVG Export Plug-In . SVG Version: 6.00 Build 0)  -->

<svg
   xmlns:dc="http://purl.org/dc/elements/1.1/"
   xmlns:cc="http://creativecommons.org/ns#"
   xmlns:rdf="http://www.w3.org/1999/02/22-rdf-syntax-ns#"
   xmlns:svg="http://www.w3.org/2000/svg"
   xmlns="http://www.w3.org/2000/svg"
   xmlns:sodipodi="http://sodipodi.sourceforge.net/DTD/sodipodi-0.dtd"
   xmlns:inkscape="http://www.inkscape.org/namespaces/inkscape"
   version="1.1"
   id="Layer_1"
   x="0px"
   y="0px"
   viewBox="0 0 754.2 528.7"
   style="enable-background:new 0 0 754.2 528.7;"
   xml:space="preserve"
   inkscape:version="0.91 r13725"
   sodipodi:docname="Epic_Records.svg"><metadata
     id="metadata13"><rdf:RDF><cc:Work
         rdf:about=""><dc:format>image/svg+xml</dc:format><dc:type
           rdf:resource="http://purl.org/dc/dcmitype/StillImage" /></cc:Work></rdf:RDF></metadata><defs
     id="defs11" /><sodipodi:namedview
     pagecolor="#ffffff"
     bordercolor="#666666"
     borderopacity="1"
     objecttolerance="10"
     gridtolerance="10"
     guidetolerance="10"
     inkscape:pageopacity="0"
     inkscape:pageshadow="2"
     inkscape:window-width="1366"
     inkscape:window-height="709"
     id="namedview9"
     showgrid="false"
     inkscape:zoom="1.7855116"
     inkscape:cx="642.16806"
     inkscape:cy="343.77466"
     inkscape:window-x="-8"
     inkscape:window-y="-8"
     inkscape:window-maximized="1"
     inkscape:current-layer="Layer_1" /><g
     id="g3"
     style="fill:#d40000"><g
       id="g5"
       style="fill:#d40000"><path
         d="M753,198.1c-2.7-8.2-9.9-13.2-15.8-14.5c-13.1-2.9-29.2,3.7-48,19.6c-21.2,18-42,27.7-52.9,24.5    c-8-2.3-13.7-6.6-16.8-12.7c-4.3-8.3-4-20,1-34.7c12.8-37.8,38.1-60.9,57.5-67.1c10.2-3.3,16.2-1,19.5,1.4    c3.6,2.7,4.9,6.5,4.9,9.1c0,0,0,0.1,0,0.1c-0.1,7.8-4.7,9.9-11.1,11.9l-0.7,0.2c-7.3,2.3-22.1,6.9-22.1,20.3c0,0.6,0,1.2,0.1,1.9    c0.5,5,3.2,8.8,7.7,11c7.8,3.6,19.1,1.3,25.4-3c10.5-7.2,22-22,19.9-39.9c-2-16.9-12.7-28.6-28.8-31.1c-11.6-1.9-30.9-0.3-57,17.5    c-24.9,17-38.1,36.8-46.9,52.2c-13.7,24.1-14.9,44.3-14.9,50.6c0,0.4,0,0.8,0,1c-2.5,2.6-12,12.2-18.9,17.9    c-0.2,0.1-11.6,9.9-19.2,6.1c-9.1-4.6-4.9-16.1-2.7-20.8c2.7-5.8,41.3-100.9,43.1-105.3c1-1.8,1.8-4.2,0.3-5.7    c-1.9-1.8-4.8,0-6.2,0.9c-5.9,3.7-11.2,5.3-17.4,5.1c-5.2-0.2-10.2-2-11.3-2.4c-0.7-0.5-2.3-1.4-4.3-0.9c-1.9,0.4-3.4,1.9-4.5,4.3    l-2.2,5c-2.9,6.9-7.3,17.3-12.9,27.4c-8.5,15.5-16.7,24.3-23.6,31c-6.1,5.8-14,11.6-19,15.1c1.6-6.3,3.9-17,3.9-27.5    c0-5.2-0.5-10.4-2-15c-3.3-10-9.8-17.9-18.5-22.2c-11-5.4-24.6-5.2-40.7,0.5c-16.8,6-34.6,22.1-44.8,32.4    c7.7-17.3,38.3-84,38.3-84S240.7,204.2,237.5,206.5c-4.3-5-18.6-19.9-41.4-22.8c-22.4-2.9-44,4.5-57.7,19.8    c-16.1,17.8-20,39.6-11.1,61.4c9.1,22.4,28.4,27,36.2,28c16.5,2,30.2-4.4,36.4-17.2c2.2-4.5,3-8.7,3-12.4c0-6-2.1-10.6-3.5-12.9    c2.7-2,19.6-14.5,22.5-16.7c2.5,3.9,8.1,14.4,8.1,28.4c0,4.3-0.5,8.9-1.8,13.6c-5.6,20.6-20.7,31.6-32.4,37.1    c-16.8,8-62.9,13.1-90.2-24c-30.7-41.7-14.4-87.9-1.4-106.4c14-20,32-34.3,53.5-42.4c9.8-3.7,23.2-5.8,35.2-5.5    c11.3,0.3,21.1,2.2,32.7,6.4c17.8,6.5,30.4,18,30.5,18.1l1.3,1.2l33.3-24.6l-4.1-1.3c-0.3-0.1-29.5-9.1-39.5-31.3    c-14.1-31,2.3-51.6,10.1-59c14.2-13.7,37.1-16.8,53.2-7c11.5,7,13.6,17.5,13.6,24.1c0,0.2,0,0.4,0,0.6c-3.2-3.6-8.8-8-17.3-8.2    c-12.6-0.4-27.2,8.3-29.5,24.9c-1,7.2,0.8,13.9,5.2,19.6c5.4,7,14.4,11.8,24.1,13c19.2,2.3,37.7-11,43.9-31.6    c6.1-20.2,0.4-49.1-22.3-65.3c-21.8-15.6-57.3-23-91.5,3.2c-11.2,8.5-23.2,25.8-23.2,48.2c0,2.4,0.1,4.9,0.4,7.5    c2,16.8,7.9,29.4,12.1,36.5c-10.9-4.8-33.1-12.8-57.8-12.3c-20.6,0.5-72.4,7-109.4,57c-31.6,42.7-27,94.5-12.1,128.7    c16.7,38.6,56.8,64.8,102.2,66.8c38.1,1.7,71.4-11.4,91.5-36c14.1-17.2,17.8-36.2,17.8-51.4c0-10.2-1.7-18.7-3-23.9    c-2.8-10.8-7-18.4-9-21.7c3-2.2,85.3-62.6,96.2-70.6c-5.6,13.3-84.2,201.1-84.9,202.9c-11.9,3.7-139.5,43.8-236.2,98.3    c0,0-6.9,19-12.9,43.4c-6,24.3-7.9,38-7.9,38C105,451.9,214.1,406,236.5,397.6c-3.2,7.5-22.5,51.3-22.5,51.3s3.3-3.3,8.3-6.9    c5-3.6,18.2-13.3,34.7-20.2c17.6-7.5,32.2-10.1,32.4-10.1l5-0.9l-4.1-3c-0.1-0.1-7-5.1-8.9-13.9c-0.5-2.2-0.7-4.2-0.7-6    c0-4.1,1-7,1.5-8.3c4.7-2,35.7-14.8,114.1-34.4c53.6-13.4,116.6-24.5,162.5-32.5c29.4-5.2,52.6-9.3,65.4-12.5l2.5-0.6    c32.7-8.1,77.4-19.2,109.5-56.9c14-16.5,18-28.6,18-37.2C754.2,202.7,753.7,200.2,753,198.1 M190.7,241.4c-2-1.5-6-3.7-12.6-4.1    c-6.7-0.4-12.5,2-15.9,3.8c0-0.1,0-0.3,0-0.4c0-4,0.9-10.6,5.7-16.7c6.5-8.2,16.6-11.9,26.9-9.9c9,1.7,15.6,7,18.4,9.7    C210.2,226.2,193,239.6,190.7,241.4z M722.1,235.1c-3.2,4.8-8,9.9-13.5,14.5c-9,7.3-20.9,13.9-35.4,19.6    c-21.1,8.2-44.6,12-84.5,18.2l-43.9,6.5c-24.8,3.6-50.5,7.3-84.9,13c-62.5,10.3-114.9,20.4-160.2,30.8c6-14.8,28-69.6,35.1-84.5    l4.5-9.7c8.5-18.6,21.5-46.8,32.7-59.1c16.6-18,41-34.3,55.8-30.8c12.5,2.9,16.5,13.6,12.6,33.5c-3.1,15.7-12.7,36.5-22.8,42.8    c-5.3,3.3-11.3,4.2-16.8,2.7c-4.4-1.2-8.1-3.9-9.8-7.3c-3.5-6.9,1.7-16.8,1.7-16.9l1.9-3.5l-3.9,0.3c-0.8,0.1-19.4,1.7-30.8,16.2    c-12.4,15.7-14,36.3-3.9,50.1c6.3,8.7,16.7,13.5,28.4,13.3c12.1-0.2,24-5.4,30.1-8.4c34.2-17.2,48.6-48.8,50.8-54.3    c2.8-1.4,13.1-6.7,25.3-15.9c5.6-4.1,10.5-8.8,14.4-12.8c-5.7,14.7-15.1,39.6-17,49.2c-0.7,3.2-1.2,7-1.2,10.9    c0,5.1,0.9,10.4,3.8,14.6c2.7,3.9,6.7,6.4,11.9,7.3c16.9,3,31.8-6.4,45.6-16.2c11.6-8.3,24-22.6,29.1-28.9    c2.5,6.4,9.3,19,24.8,24.4c15.4,5.4,29.9,5.7,54.2-9c15.9-9.6,26.7-20,34.5-27.7c3.8-3.6,7.1-6.7,9.9-8.9c9.6-7.2,18-7.6,23.6-1.1    c2.2,2.6,3.8,6.3,3.8,10.9C727.8,223.4,726.2,229,722.1,235.1z M406.5,246.6c-4.6,5.3-14,14.5-24.5,14.5c-5.4,0-10.3-1.9-13.4-5.2    c-2.6-2.8-3.9-6.5-3.9-11.1c0-0.7,0-1.3,0.1-2c0.8-10.1,7-15.2,10.5-17.4c0.8,4.2,2.9,11.3,9.6,15.6    C392.8,246,401.3,246.7,406.5,246.6z M576.1,50.8c10.3,3.2,22.2-5.2,26.6-18.8c2.5-7.8,2.1-15.8-1.1-22c-2.2-4.3-5.6-7.2-9.7-8.5    c-10.3-3.2-22.2,5.2-26.6,18.8c-1.1,3.4-1.6,6.9-1.6,10.2c0,4.3,0.9,8.4,2.7,11.9C568.7,46.6,572,49.6,576.1,50.8z"
         id="path7"
         style="fill:#d40000" /></g></g><path
     d="m 750.18791,106.39009 c 0,7.26319 -6.0063,13.1949 -13.40267,13.1949 -7.43958,0 -13.44588,-5.93171 -13.44588,-13.1949 0,-7.275054 6.0063,-13.150913 13.44588,-13.150913 7.39637,0 13.40267,5.911389 13.40267,13.150913 z m -24.82743,0 c 0,6.46632 5.13319,11.69082 11.42476,11.69082 6.28466,0 11.38328,-5.3903 11.38328,-12.03766 0,-6.03151 -5.09862,-10.98362 -11.38328,-10.98362 -6.32615,0 -11.42476,5.06039 -11.42476,11.33046 z m 5.21445,-7.474684 7.50701,0 c 3.59617,0 4.87731,1.172474 4.87731,4.459774 0,2.5158 -1.76178,3.9099 -3.46304,3.9099 1.47477,0 3.25557,1.79846 3.25557,3.43788 l 0,2.90326 -2.61068,0 0,-2.44983 c 0,-1.69695 -1.79118,-2.80174 -3.69473,-2.80174 l -3.26767,0 0,5.25157 -2.60377,0 z m 5.7556,7.283504 c 2.72307,0 4.01113,-0.50418 4.01113,-2.40585 0,-2.31955 -0.35962,-2.70021 -2.37901,-2.70021 l -4.78395,0 0,5.10606 3.15183,0"
     style="fill:#d40000;fill-opacity:1;fill-rule:nonzero;stroke:none"
     id="path170"
     inkscape:connector-curvature="0" /></svg>