<svg xmlns="http://www.w3.org/2000/svg" viewBox="0 0 276.53 113.08"><g data-name="Layer 2"><path d="M49.16 36.9c-.83.73-1.26.93-1.4 1.25-2.39 5.67-5.6 11.1-5.76 17.48 0 1.93.57 3.88.5 5.81 0 1.06-.59 2.61-1.39 3s-2.23-.19-3.31-.57c-1.86-.64-3.61-1.61-5.5-2.14a3.71 3.71 0 0 1-1.54-5.81c3-3.3 3.15-7.17 3.19-11.18C34 41.16 34 37.58 34 34a17 17 0 0 0-.38-2.38 11.78 11.78 0 0 0-1.33 2.13c-4.33 14.5-8.72 29-10.95 44-.42 2.79.4 5.78.82 8.65s-.56 5.4-2.95 6.6c-2.23 1.12-4.38.61-6.41-1.91a6.88 6.88 0 0 0-6.51-2.95c-3 .27-4.64-1-5.72-3.89C-.55 81.15-.08 79 2.23 77c1.85-1.58 4.11-2.87 5.47-4.79a37.06 37.06 0 0 0 5.1-9.36c5.17-15.26 10.07-30.61 15-45.94C29.1 13 30 9.1 28.42 5c-.72-1.94.48-3.49 2.14-4.5s3-.44 4.17.8a4 4 0 0 0 5 1 2.88 2.88 0 0 1 4.17 2.92 13.45 13.45 0 0 1-1.52 5.53 18.94 18.94 0 0 0-2.29 9.36c.1 4.15 0 8.31 0 12.46a30.79 30.79 0 0 0 .44 3.33c.73-.51 1.19-.65 1.32-.95 3-6.58 6-13.13 8.8-19.79.65-1.56.42-3.5.54-5.27a28.37 28.37 0 0 1 0-2.92c.61-3.62 3-4.56 6.1-2.85a8.72 8.72 0 0 0 4.8 1c2-.2 3.65.08 4.75 1.68 1.23 1.78 2 3.8.9 6a4.8 4.8 0 0 1-1.26 1.78c-4.79 3.5-6.1 8.67-6.71 14.1-.66 5.9-1.09 11.82-1.57 17.74a19.4 19.4 0 0 0 .22 3l.65.28a13.86 13.86 0 0 0 2.22-2.6c4.64-9.51 9.27-19 13.7-28.62.65-1.4.29-3.3.29-5 0-1.05-.34-2.1-.28-3.14a4.21 4.21 0 0 1 3.27-3.83c1.81-.59 3 .53 3.73 2 1.06 2 2.37 2.62 4.56 1.48a4.41 4.41 0 0 1 6.17 2.05c1.16 2.15.58 5.71-1.49 6.79A6.61 6.61 0 0 0 87.63 25c-.26 10.58-.36 21.16-.5 31.74 0 .21.18.42.49 1.14a29.92 29.92 0 0 0 1.67-2.77c4.22-9.32 6-19.22 6.84-29.33a58.53 58.53 0 0 0 .6-6.31 35.07 35.07 0 0 0-.91-7.13c-.39-1.63-1-3.06.43-4.49s2.56-.57 4 0a7.19 7.19 0 0 0 3.27 0c2.46-.26 4.63 1.61 3.76 3.71-2.17 5.23-.77 10.47-.51 15.69a94.34 94.34 0 0 0 1.41 10.14 13.5 13.5 0 0 0 1 2.56c.64-.57 1.12-.82 1.31-1.2 3.4-6.67 7.07-13.25 8.56-20.69a19.79 19.79 0 0 0 0-5.75c-.14-1.4-.71-3.06 1-3.56 1.22-.36 3.31-.27 4 .52a13.37 13.37 0 0 0 7 4c2.05.56 2.19 2.41 1.79 4.23a3.25 3.25 0 0 1-.75 1.52c-5.33 5.38-5.34 12.53-6.33 19.3-.61 4.18-.77 8.42-1.11 12.63 0 .38.07.76.64 1.4a20.19 20.19 0 0 0 2.37-3.68c3.27-8.76 6.51-17.54 9.55-26.38 1.29-3.75 2.19-7.63 1.48-11.72-.3-1.75.66-3.1 2.36-3.87s2.62.3 3.77 1.3a4.94 4.94 0 0 0 2.91 1.26c3.66.07 6.81 3.73 5 6.9-3.21 5.53-1.87 11.21-1.38 16.69.86 9.78 2.7 19.48 4.14 29.21a5 5 0 0 0 .41.92c2.38-1.63 3.1-4.06 3.23-6.5.34-6 .42-12 .55-18.06a4.09 4.09 0 0 0-3.12-4.42c-1.47-.45-3-1.19-2.67-3a10.71 10.71 0 0 1 2.11-4.87c1.31-1.51 2.9-.24 4.37.57a20.82 20.82 0 0 0 5.63 2.46c2.21.47 3.31-.94 2.18-2.85a110.26 110.26 0 0 0-7.51-11.06c-.73-1-2.4-1.25-3.68-1.73-2.73-1-3.69-2.8-2.77-5.27 1.1-2.93 3.29-4.08 5.92-2.71a36.15 36.15 0 0 0 15.38 4.33 37.84 37.84 0 0 0 7.92-.77c1.77-.3 3.38-.56 4.75.89s.84 2.95.23 4.54a21.27 21.27 0 0 0-.47 3c-.24 1.17-.27 3-.95 3.32a4.71 4.71 0 0 1-4-.23 30 30 0 0 0-11.26-4.51 23.93 23.93 0 0 0-3-.2 14.17 14.17 0 0 0 1.05 2.32c2.37 3.21 4.72 6.43 7.21 9.54a21.3 21.3 0 0 0 3.56 3.27 4.41 4.41 0 0 1 1.48 5.4c-1.14 2.09-2.81 1.18-4.49.75a18.06 18.06 0 0 0-5.23-.78c-3.39.15-5.28 1.77-5.39 5.12-.24 7.2-1.34 14.48 1.13 21.55a16.53 16.53 0 0 0 .73 1.8c.1.2.34.33.91.85 1.38-1.27 3.11-2.33 4.09-3.87a59.54 59.54 0 0 0 4.86-9.25c3.91-9.65 7.57-19.4 11.4-29.08 1.68-4.23 3.15-8.32.65-12.87-.55-1 .08-3.4 1-4.25.67-.63 2.94-.17 4.1.5 1.91 1.1 3.49 1.72 5.63.51 2.46-1.38 4.78.28 4.63 3.11a6.88 6.88 0 0 1-.29 1.69c-2.62 8.58-.08 17.12.26 25.67a114.36 114.36 0 0 0 1.23 12.37 62.42 62.42 0 0 0 1.91 7.12l.77-.1a4 4 0 0 0 .46-1.18c.36-7.47 1-15 1-22.43-.07-8.76-.36-17.58-3.81-25.91A5.9 5.9 0 0 1 207.5 4c.85-2.55 3.05-3.06 4.87-1.12s3.41 2.69 6 2c2.38-.65 4.31 1.64 3.78 4.21a7.66 7.66 0 0 1-1.08 2.7c-3.18 4.52-2 9.51-1.62 14.41 0 .21.22.42.4.73.29-.09.71-.1.84-.3 2.93-4.57 6-9.08 8.64-13.82.93-1.67.82-3.92 1.17-5.91a15 15 0 0 1 .4-2.63c.66-1.84 2-2.27 3.34-.9a5.34 5.34 0 0 0 5.66 1.76c.84-.2 2.35.87 3 1.76a3.05 3.05 0 0 1-.73 4.18c-1.32 1.21-3 2.1-4.1 3.45-2.67 3.17-5.13 6.51-7.63 9.82-1.08 1.43-2.06 2.93-3 4.42-1.77 2.71-1.72 4.59.14 7.19.24.33.5.65.74 1 2.33 3.2 3.24 3.33 6.24.68a12.92 12.92 0 0 0 2.55-2.93 66.51 66.51 0 0 0 9-23.33 12.78 12.78 0 0 0-.1-4.36c-.36-2-.15-3.66 1.69-4.66s3.22.11 4.35 1.56a3.37 3.37 0 0 0 4 1.39c3-.91 5.26 1.2 4.83 4.31a3.74 3.74 0 0 1-.26.94c-2.61 5.92-1.91 11.92-.55 18q4.35 19.28 8.67 38.56a16.62 16.62 0 0 0 4.76 8.61c2.45 2.38 3.7 5.36 2.74 8.86a4.36 4.36 0 0 1-6.35 2.78c-1.54-.82-2.95-1.29-4.59-.36s-3.21 1.73-4.94.24a6.1 6.1 0 0 1-2.36-6.13 21 21 0 0 0 .78-4.3 140.84 140.84 0 0 0-3.53-29.5c-.88-3.66-3.56-5.73-7.08-6.73-2.2-.62-3.56.25-3.74 2.51a16.84 16.84 0 0 0 .33 3.86c.34 2.11.22 3.91-2.21 4.74-2.27.78-3.44-.45-4.55-2.18a23.78 23.78 0 0 0-2.65-2.95l-.72.54a5.86 5.86 0 0 0 .3 1.52c3.37 6.89 6.79 13.74 13.42 18.27a9.82 9.82 0 0 1 2.83 3.3c1.44 2.59-.12 5.37-3 5.28a8 8 0 0 0-6.5 2.68c-1.19 1.26-2.69 2.31-4.56 1.29s-2-2.75-2-4.8a28.41 28.41 0 0 0-1.22-9.11c-2.41-7-5.25-13.85-8-20.7a12.88 12.88 0 0 0-2.75-4 2.91 2.91 0 0 0-2.59-.61 3.06 3.06 0 0 0-1.44 2.25 25.06 25.06 0 0 0 .31 4.11c.37 6.9.75 13.81 1.05 20.71a27.91 27.91 0 0 0 2.76 12 7.2 7.2 0 0 1 .62 4.83c-1.06 3.63-4.47 4.46-7.24 1.9-2-1.84-3.83-3.28-6.88-2.6-1 .22-2.87-.91-3.55-1.94-1.19-1.82-.61-3.85.54-5.73a51.85 51.85 0 0 0 3-5.77 10.86 10.86 0 0 0 .38-2.93l-10.74-1.92a3.85 3.85 0 0 1-2.85-5.09c.51-1.79 1.41-3.46 2.08-5.2 1.41-3.67.36-5.26-3.51-5.38-4.69-.15-6.26.91-7.86 5.28-.81 2.22-1.58 4.45-2.5 6.63a14 14 0 0 0-.81 9.74c.4 1.36.17 3.61-.72 4.43s-3 .45-4.52.46c-2 0-4-.41-5.92-.09A4.2 4.2 0 0 1 168 74a9 9 0 0 0-2.58-2.06 18 18 0 0 0-2.56-1.38c-1.77-.81-3.57-1.55-5.36-2.32l-.57.74a13 13 0 0 1 1 2.21 28.13 28.13 0 0 1 1.29 6.06c.06 2.18-1.5 3.11-3.5 2.21a11.09 11.09 0 0 0-7.8-.48c-1.15.3-3.06-.83-4.06-1.86a3.71 3.71 0 0 1-.16-5.16c2.56-2.74 2.4-5.86 2.07-9.16-.28-2.83-.34-5.68-.73-8.5a5.86 5.86 0 0 0-5.71-5 2.92 2.92 0 0 0-3.24 2.65 15.39 15.39 0 0 0 .61 8.62c1.15 3 .46 5.1-1.86 5.59-1.2.25-2.65-.44-3.94-.87-1.71-.57-3.32-1.48-5.06-1.9-1.53-.37-2.07.69-1.65 2.07a34.28 34.28 0 0 0 1.34 3.4c.66 1.62 1 3.49-.62 4.39a5.92 5.92 0 0 1-4.23 0c-1.54-.51-2.83-1.13-4.54.56a31.45 31.45 0 0 0 4 2c10.34 3.44 20.67 6.95 31.1 10.09a16.08 16.08 0 0 0 7.92.1q12.47-2.86 24.74-6.47c2.55-.76 4.7-2.81 7.12-4.11a13 13 0 0 1 4.42-1.56c.71-.08 1.64 1 2.33 1.65 1 .94 1.7 2.27 2.81 3 1.78 1.11 2.69 2.37 1.95 4.41a3.47 3.47 0 0 1-4.8 2c-3.08-1.57-6-.81-9-.1-6.66 1.54-13.36 2.86-20 4.28-.77.17-1.51.42-2.75.78a10.47 10.47 0 0 0 2 1.26c5.56 1.55 11.07 3.4 16.72 4.43 3.1.56 6.46-.23 9.69-.52 2.22-.2 4.23.15 5.8 1.83s1.7 3.1.2 5c-.82 1-.93 2.62-1.4 4s-.76 3.67-1.59 3.9c-1.69.47-4.37.55-5.47-.47-9.47-8.83-22-10.49-33.48-14.58-2.23-.79-5.14-.08-7.65.39-11.2 2.11-22.34 4.62-32.8 9.28-3.06 1.36-5.74 3.59-8.57 5.45a28.6 28.6 0 0 1-4.21 2.85c-3.72 1.58-6.51-.8-6.28-4.8a6.24 6.24 0 0 0-1.65-4c-2-2.28-2.74-4.08-1.57-6 1.33-2.23 3.4-2.29 5.58-1.63a26.51 26.51 0 0 0 13.5.21c7.94-1.74 15.92-3.3 23.88-5 1.15-.24 2.26-.7 3.77-1.18-.69-.52-1-.86-1.3-1-7-2.15-13.93-4.55-21-6.29-3.4-.84-7.1-.49-10.66-.55-2.4 0-4.73-.08-6.63-1.85-2.18-2-2.12-4.2-.08-6.35 1.11-1.17 1.71-2.81 2.73-4.09a5.9 5.9 0 0 1 2.49-2.12c1-.28 2.19.18 3.13.3 5.12-6.1 6.21-13.47 7-21 .35-3.14 1-6.24 1.48-9.36.13-.77.27-1.53.41-2.3l-.61-.3a16.36 16.36 0 0 0-1.19 1.71 72.72 72.72 0 0 0-3.91 7.6 34.22 34.22 0 0 0-1.44 6.5c-.15.87.2 1.87-.09 2.66a3.68 3.68 0 0 1-1.72 2.14c-.57.21-1.52-.55-2.28-.91a21.44 21.44 0 0 0-3.45-1.67c-1.72-.46-2.08-1.58-2-3.72.13-4.83-.14-9.68-.26-14.52a2.4 2.4 0 0 0-.33-.9c-.07-.11-.27-.16-.74-.41a10.84 10.84 0 0 0-.73 2.14c-.68 5.9-1.56 11.79-1.83 17.71-.13 2.81.76 5.72 1.51 8.49.5 1.86 1.36 3.6-.33 5.19s-3.42 1.18-5.38.22a9.55 9.55 0 0 0-4.1-.45 24.12 24.12 0 0 0-3.52.53 3.34 3.34 0 0 0-.35 1.14c.1 6.66-.15 13.35 2.78 19.64 1.62 3.49 1.29 5.43-.74 7.09-1.84 1.51-3.75 1.94-5.76.35a4.37 4.37 0 0 0-5.23-.29c-4.08 2.19-7.84.1-8-4.67a14.32 14.32 0 0 1 1.28-6.36c3.28-7 4-14.35 4.5-21.85a21.83 21.83 0 0 0 .32-3.39c-.17-1.82-.21-3.85-1.09-5.35a4.81 4.81 0 0 0-3.82-1.79c-1 0-2.36 1.54-2.64 2.63-.48 1.83-.21 3.85-.27 5.79 0 1.2.22 2.57-.26 3.57a5 5 0 0 1-2.72 2.68c-1.07.25-2.55-.51-3.62-1.19s-1.6-1.71-2.76-3a11.29 11.29 0 0 0 .68 8.94 33.46 33.46 0 0 1 2.29 4.29 10.22 10.22 0 0 1 .63 4.49c-.51 3.79-2.75 4.78-6 2.72a6.43 6.43 0 0 0-6.25-.55c-3.6 1.37-5.41.75-7-2.15-1.44-2.63-1-5 1.68-7 3-2.36 3.16-5.82 3.36-9.08.5-8.12.7-16.25 1-24.38a19.86 19.86 0 0 0-.46-3zm147.42-7.6a25.36 25.36 0 0 0-1.58 2.86q-1.8 4.65-3.47 9.37c-1.26 3.54-.5 4.65 3.23 4.73a5 5 0 0 0 2.39-.23c.81-.47 2-1.42 2-2.1-.28-4.35-.83-8.69-1.35-13 0-.4-.54-.75-1.18-1.6zM78.57 31c-.51.14-.76.14-.8.23-2 4.66-4.18 9.29-6 14-.29.75.46 2.41 1.23 3 2.36 1.77 4.66.46 5-2.78.32-3.55.45-7.12.63-10.69.06-1.22 0-2.46 0-3.78zm175.16 2.54c-.33-3.63-.61-7.26-1-10.88a6.23 6.23 0 0 0-1.08-2c-.53.64-1.3 1.18-1.55 1.91-.93 2.68-1.6 5.45-2.53 8.13-1.29 3.68-.46 5 3.51 5.43 2 .21 2.91-.64 2.68-2.59zm-111-4.93a6.36 6.36 0 0 0-.92 1.33c-1.16 4.12-2.38 8.24-3.4 12.4-.55 2.25.34 3.26 2.54 3.4s3.11-.6 3-3c-.12-4-.35-8.09-.58-12.13a9.55 9.55 0 0 0-.68-2z" fill="#020202" data-name="Layer 1"/></g></svg>