<?xml version="1.0" encoding="utf-8"?>
<!-- Generator: Adobe Illustrator 15.1.0, SVG Export Plug-In . SVG Version: 6.00 Build 0)  -->
<!DOCTYPE svg PUBLIC "-//W3C//DTD SVG 1.1//EN" "http://www.w3.org/Graphics/SVG/1.1/DTD/svg11.dtd">
<svg version="1.1" xmlns="http://www.w3.org/2000/svg" xmlns:xlink="http://www.w3.org/1999/xlink" x="0px" y="0px" width="365.14837167"
	 height="273.861278753" viewBox="0 0 640 480" enable-background="new 0 0 640 480" xml:space="preserve">
<g id="レイヤー_1">
</g>
<g id="レイヤー_4">
	<g>
		<g>
			<g>
				<g>
					<path fill="#FFFFFF" d="M168.923,334.724c-5.019,0-9.884-0.712-14.458-2.116c-10.938-3.363-24.111-11.894-25.246-24.864
						c-0.604-7.075,3.438-14.597,9.612-17.887c2.17-1.161,4.689-1.75,7.483-1.75c2.466,0,4.661,0.455,6.373,0.981
						c-0.279-1.315-0.574-2.643-0.871-3.979c-1.248-5.614-2.539-11.419-2.815-17.229c-0.026-0.546,0.391-1.011,0.936-1.046
						c0.279-0.018,0.557-0.026,0.832-0.026c1.823,0,3.515,0.369,4.89,0.813l-3.12-4.396c-0.241-0.34-0.247-0.794-0.013-1.14
						c0.073-0.108,7.223-10.721,8.614-16.101c-3.333-6.104-8.331-16.585-8.382-16.692c-17.156-36.794-12.696-87.173,10.369-117.193
						c22.455-30.687,56.515-48.297,93.434-48.297c11.214,0,22.492,1.64,33.52,4.874c5.524,1.502,11.251,3.499,17.963,6.266
						c17.407-13.39,35.932-16.216,48.453-16.216c12.388,0,24.721,2.848,34.728,8.018c0.104,0.055,0.199,0.127,0.279,0.214
						l7.865,8.604c0.054,0.059,0.101,0.125,0.139,0.195c3.433,6.273,6.935,14.283,7.102,26.267
						c13.097-0.493,25.952-2.238,34.564-3.522c0.038-0.005,0.077-0.009,0.116-0.01c0.731-0.023,1.461-0.035,2.188-0.035
						c23.062,0,43.134,11.583,53.692,30.984c12.595,23.996,15.355,51.929,7.993,80.792c-6.468,25.356-20.675,50.826-40.004,71.717
						c-36.012,35.487-81.913,52.722-140.359,52.722c-30.279-0.802-62.122-9.982-97.346-28.06
						C209.936,324.228,188.105,334.724,168.923,334.724z"/>
					<path fill="#FFFFFF" d="M356.495,59.725c12.651,0,24.646,2.935,34.269,7.906l7.865,8.604
						c3.232,5.909,7.013,14.023,6.984,26.823c-0.159,0.325-0.352,0.614-0.521,0.903c0.178-0.013,0.352,0,0.549-0.013
						c0-0.303-0.028-0.564-0.028-0.89c12.127-0.395,24.265-1.863,35.706-3.569c0.721-0.023,1.439-0.034,2.157-0.034
						c21.884,0,42.002,10.595,52.814,30.462c26.927,51.305,4.769,111.757-31.867,151.353c-38.301,37.741-85.949,52.4-139.625,52.4
						c-34.634-0.918-67.31-12.693-97.541-28.284c-15.509,15.799-37.343,28.338-58.335,28.338c-4.794,0-9.544-0.653-14.165-2.072
						c-10.743-3.304-23.454-11.537-24.543-23.995c-0.549-6.423,3.093-13.724,9.086-16.917c2.163-1.157,4.594-1.633,7.013-1.633
						c2.717,0,5.419,0.6,7.709,1.51c-1.472-7.343-3.658-15.083-4.024-22.784c0.258-0.017,0.514-0.024,0.768-0.024
						c4.244,0,7.789,2.168,7.789,2.168l-5.203-7.331c0,0,7.644-11.302,8.849-16.804c-3.354-6.091-8.542-16.979-8.542-16.979
						c-16.311-34.983-13.386-85.379,10.259-116.153c22.61-30.897,56.622-47.907,92.641-47.906c10.981,0,22.151,1.582,33.238,4.833
						c6.314,1.717,12.404,3.964,18.398,6.452c-0.003,0.002-0.007,0.005-0.01,0.008c0,0,0.016,0,0.03,0
						c-0.006-0.003-0.013-0.005-0.02-0.008C322.972,64.547,340.273,59.725,356.495,59.725 M356.495,57.725v2V57.725
						c-12.567,0-31.107,2.811-48.604,16.073c-6.524-2.67-12.132-4.614-17.569-6.093c-11.08-3.25-22.452-4.903-33.763-4.903
						c-37.24-0.001-71.594,17.759-94.254,48.725c-23.248,30.257-27.756,81.079-10.458,118.18c0.211,0.444,4.887,10.25,8.22,16.399
						c-1.31,4.416-6.412,12.521-8.371,15.419c-0.467,0.69-0.457,1.598,0.026,2.277l1.574,2.219
						c-0.802-0.132-1.651-0.213-2.529-0.213c-0.296,0-0.594,0.01-0.895,0.028c-1.09,0.069-1.923,1-1.871,2.091
						c0.28,5.896,1.581,11.744,2.838,17.399c0.179,0.806,0.354,1.593,0.524,2.37c-1.68-0.39-3.385-0.59-5.05-0.59
						c-2.96,0-5.637,0.629-7.956,1.869c-6.509,3.468-10.773,11.396-10.136,18.851c1.178,13.47,14.714,22.282,25.948,25.737
						c4.671,1.434,9.634,2.16,14.753,2.16c19.253,0,41.11-10.402,58.722-27.891c35.104,17.928,66.88,27.035,97.101,27.836
						c0.018,0.001,0.035,0.001,0.053,0.001c58.722,0,104.853-17.328,141.028-52.976c0.022-0.021,0.044-0.044,0.064-0.066
						c19.441-21.012,33.731-46.635,40.239-72.149c7.425-29.107,4.635-57.286-8.069-81.491
						c-10.751-19.754-31.151-31.532-54.585-31.532c-0.735,0-1.482,0.012-2.221,0.035c-0.077,0.002-0.154,0.009-0.231,0.021
						c-8.366,1.248-20.745,2.931-33.439,3.471c-0.349-11.635-3.809-19.505-7.201-25.707c-0.077-0.141-0.171-0.271-0.278-0.39
						l-7.865-8.604c-0.16-0.174-0.349-0.319-0.559-0.427C381.536,60.612,369.04,57.725,356.495,57.725L356.495,57.725z"/>
				</g>
			</g>
			<path fill-rule="evenodd" clip-rule="evenodd" fill="#FFFFFF" d="M286.355,147.207c-36.083,10.715-63.978,39.698-68.374,73.784
				c-3.046,20.397,1.842,41.221,13.521,57.6c6.61,9.295,21.281,23.93,22.549,21.866c0.926-2.175-8.816-6.981-16.827-24.265
				c-4.665-10.03-11.468-30.459,2.286-51.42c-9.608-1.719-12.936,1.151-14.575-2.496c-0.083-4.483,13.966-0.69,18.588-1.851
				c0,0,3.773-3.556,9.261-6.877c0.787-0.461-15.632-5.217-19.227-6.645c-3.781-1.715-0.918-4.467,0.675-3.998l24.406,8.118
				l7.533-1.946c17.575-2.938,33.347,2.926,48.188,8.978c0.549-2.375,2.563-3.841,4.202-5.684
				c9.004-4.855,16.094-2.931,21.987,0.336c2.743,1.533,5.813,5.193,6.137,10.23c23.716-5.274,44.217-0.232,54.533,6.41
				c10.637-0.458,10.779-0.302,19.803-1.376c2.062,0.46,3.313,2.069,0.219,4.137l-15,1.028c3.097,2.862,6.883,6.971,8.375,11.091
				c3.658,1.657,7.885,1.385,10.071,2.536c1.717,0.91,2.168,3.316-0.227,3.885c-3.323,0.235-4.575-1.606-8.019-1.606
				c0.23,4.475,1.97,4.498,1.479,13.17c-1.401,24.896-22.551,44.249-39.037,52.653c-11.923,7.321,20.889-0.665,40.747-29.927
				c11.617-17.105,18.793-45.188,7.34-77.579C405.781,147.491,332.837,133.393,286.355,147.207z M313.257,201.19
				c-4.952,4.949-13.387,7.583-20.029,4.184c-6.873-3.504-10.243-8.697-10.54-16.187c-0.199-4.748,1.551-8.728,5.036-12.206
				c3.111-3.308,7.032-5.34,11.3-5.663c6.406-0.443,14.658,3.98,17.113,10.097C319.73,190.429,317.646,196.246,313.257,201.19z
				 M322.04,159.971c-0.457,1.897-1.223,2.509-2.724,2.649c-1.98,0.307-4.957-7.161-11.13-6.256
				c-9.464,0.767-6.875,6.872-11.459,3.513c-3.498-3.672,8.548-11.299,16.956-7.941C319.194,154.141,321.385,158.336,322.04,159.971
				c0.021-0.043,0.021-0.043,0.047-0.094c0.028,0.2,0.074,0.358,0.099,0.499C322.161,160.27,322.102,160.144,322.04,159.971z
				 M364.055,161.568c6.418-2.604,12.982,1.359,15.275,4.576c2.044,2.04,4.734,5.175,1.842,7.167
				c-4.886,1.839-3.366-5.499-10.543-7.47c-10.23-0.772-8.855,7.47-12.992,3.506C355.813,167.065,359.756,163.294,364.055,161.568z
				 M383.787,207.061c-3.65,6.41-10.776,10.38-18.045,9.455c-7.063-0.874-9.871-4.195-12.965-9.157
				c-3.126-5.662-3.027-12.801,0.751-18.171c4.741-6.709,11.73-8.717,18.936-7.313c4.725,0.915,8.954,4.788,11.143,8.993
				C386.176,195.263,386.352,202.484,383.787,207.061z"/>
			<path fill-rule="evenodd" clip-rule="evenodd" fill="#F05145" d="M441.319,99.489c-24.918,3.675-53.13,6.418-77.301-0.895
				c-26.209-5.869-48.378-21.991-74.221-28.96c-47.452-13.915-96.376,2.756-125.879,43.073
				c-23.645,30.774-26.57,81.17-10.259,116.153c0,0,5.187,10.889,8.542,16.979c-1.205,5.502-8.849,16.804-8.849,16.804l5.203,7.331
				c0,0-3.98-2.435-8.556-2.144c0.366,7.701,2.552,15.441,4.024,22.784c-4.33-1.72-10.13-2.334-14.722,0.123
				c-5.993,3.193-9.635,10.494-9.086,16.917c1.09,12.458,13.8,20.691,24.543,23.995c24.854,7.63,53.449-6.858,72.5-26.266
				c30.231,15.591,62.907,27.366,97.541,28.284c53.676,0,101.324-14.659,139.625-52.4c36.636-39.596,58.794-100.047,31.867-151.353
				C485.124,109.399,464.031,98.771,441.319,99.489z M458.805,147.584c-14.285,8.604-31.102,15.941-46.495,23.827l-16.488-13.523
				C422.162,150.344,447.369,145.536,458.805,147.584z M230.798,126.857c6.354,2.277,33.439,15.338,40.435,19.251
				c-10.529,4.577-15.586,10.297-18.324,10.068l-32.855-30.237C218.674,124.556,225.077,124.805,230.798,126.857z M218.674,132.936
				c9.887,7.866,20.483,18.662,29.426,27.253c-16.258,13.041-23.698,25.539-31.268,42.715c-2.734-1.27-4.007-3.57-5.832-6.762
				C204.94,186.059,207.325,157.54,218.674,132.936z M157.025,325.231c-7.744-1.845-13.93-4.655-18.021-12.217
				c-3.962-7.321-1.655-10.495,0.185-13.25c2.926-3.284,7.397-4.335,11.422-3.246c7.749,2.203,7.944,8.867,7.944,8.867l6.405-2.146
				c0,0-5.496-11.295-6.726-26.546c6.117,2.743,10.077,2.124,16.865,8.243c1.651-1.845,3.104-3.668,3.652-5.871
				c-6.025-4.759-11.341-10.086-16.842-15.586c-0.3-2.673,2.931-7.928,4.581-11.227c17.705,23.525,25.341,29.016,53.861,49.52
				C211.063,316.075,179.918,330.734,157.025,325.231z M292.647,315.791c-25.088-7.193-45.494-26.039-52.687-47.041
				c-1.552-4.586-8.81-27.257,6.868-43.873c15.944,0.572,31.965,0.806,47.771,1.716c1.489-0.91,3.198-1.251,0.447-3.888
				c-8.59-2.51-18.888-5.263-24.955-8.36c20.954-2.405,45.354,8.253,59.981,20.962c17.324-11.026,44.225-10.762,59.328-5.268
				c-17.633,3.89-31.374-0.917-25.645,5.959c8.368,2.175,29.917,6.83,46.052,11.225c5.879,12.98,4.675,35.309-23.297,56.944
				C370.33,316.685,332.789,327.36,292.647,315.791z M251.866,220.867c1.042-1.595,4.133-3.426,9.069-4.688
				c7.209,1.381,10.991,3.681,17.749,5.725C271.18,222.097,262.077,221.681,251.866,220.867z M398.22,233.822
				c2.187,0.568,7.013,3.997,8.728,8.591l-28.759-7.213C383.857,235.2,392.493,233.698,398.22,233.822z M419.629,284.938
				c-19.858,29.262-52.67,37.248-40.747,29.927c16.486-8.404,37.636-27.757,39.037-52.653c0.491-8.672-1.248-8.695-1.479-13.17
				c3.443,0,4.695,1.842,8.019,1.606c2.395-0.568,1.943-2.975,0.227-3.885c-2.187-1.151-6.413-0.879-10.071-2.536
				c-1.492-4.12-5.278-8.229-8.375-11.091l15-1.028c3.095-2.068,1.843-3.677-0.219-4.137c-9.023,1.074-9.166,0.919-19.803,1.376
				c-10.316-6.642-30.817-11.684-54.533-6.41c-0.323-5.037-3.394-8.697-6.137-10.23c-5.893-3.267-12.982-5.191-21.987-0.336
				c-1.639,1.842-3.653,3.309-4.202,5.684c-14.841-6.052-30.613-11.916-48.188-8.978l-7.533,1.946l-24.406-8.118
				c-1.593-0.469-4.457,2.283-0.675,3.998c3.595,1.428,20.014,6.184,19.227,6.645c-5.487,3.321-9.261,6.877-9.261,6.877
				c-4.622,1.161-18.671-2.632-18.588,1.851c1.639,3.647,4.967,0.777,14.575,2.496c-13.753,20.961-6.95,41.39-2.286,51.42
				c8.011,17.283,17.753,22.09,16.827,24.265c-1.268,2.063-15.938-12.571-22.549-21.866c-11.679-16.379-16.567-37.202-13.521-57.6
				c4.396-34.086,32.291-63.068,68.374-73.784c46.482-13.813,119.426,0.284,140.614,60.152
				C438.422,239.75,431.246,267.832,419.629,284.938z M436.556,218.228c-3.665-15.014-10.275-27.36-20.573-42.021
				c13.744-7.691,29.78-15.241,44.432-22.204C462.933,178.958,457.216,205.293,436.556,218.228z"/>
			<path fill-rule="evenodd" clip-rule="evenodd" fill="#F05145" d="M405.244,96.013c-0.756-7.314-3.304-13.727-6.615-19.777
				l-7.865-8.604c-21.076-11.18-53.327-10.814-73.118,2.187C343.905,86.754,372.007,97.423,405.244,96.013z"/>
			<path fill-rule="evenodd" clip-rule="evenodd" fill="#FFFFFF" d="M252.909,156.177c2.738,0.229,7.795-5.492,18.324-10.068
				c-6.996-3.914-34.081-16.974-40.435-19.251c-5.721-2.052-12.124-2.301-10.744-0.917L252.909,156.177z"/>
			<path fill-rule="evenodd" clip-rule="evenodd" fill="#FFFFFF" d="M216.832,202.904c7.57-17.176,15.01-29.675,31.268-42.715
				c-8.943-8.591-19.539-19.387-29.426-27.253c-11.349,24.604-13.734,53.124-7.674,63.207
				C212.824,199.334,214.097,201.634,216.832,202.904z"/>
			<path fill-rule="evenodd" clip-rule="evenodd" fill="#FFFFFF" d="M458.805,147.584c-11.436-2.048-36.643,2.76-62.983,10.304
				l16.488,13.523C427.703,163.525,444.52,156.189,458.805,147.584z"/>
			<path fill-rule="evenodd" clip-rule="evenodd" fill="#F05145" d="M313.682,151.936c-8.408-3.358-20.454,4.269-16.956,7.941
				c4.585,3.358,1.995-2.746,11.459-3.513c6.173-0.904,9.15,6.563,11.13,6.256c1.501-0.14,2.267-0.751,2.724-2.649
				C321.385,158.336,319.194,154.141,313.682,151.936z"/>
			<path fill-rule="evenodd" clip-rule="evenodd" fill="#FFFFFF" d="M415.982,176.207c10.298,14.661,16.908,27.007,20.573,42.021
				c20.66-12.935,26.377-39.27,23.858-64.225C445.763,160.966,429.727,168.516,415.982,176.207z"/>
			<path fill-rule="evenodd" clip-rule="evenodd" fill="#F05145" d="M370.629,165.84c7.177,1.971,5.657,9.309,10.543,7.47
				c2.893-1.992,0.202-5.127-1.842-7.167c-2.293-3.216-8.857-7.18-15.275-4.576c-4.299,1.727-8.241,5.498-6.418,7.778
				C361.773,173.31,360.398,165.068,370.629,165.84z"/>
			<path fill-rule="evenodd" clip-rule="evenodd" fill="#F05145" d="M299.024,171.318c-4.269,0.323-8.189,2.355-11.3,5.663
				c-3.485,3.479-5.234,7.458-5.036,12.206c0.296,7.489,3.667,12.683,10.54,16.187c6.642,3.399,15.077,0.765,20.029-4.184
				c4.389-4.944,6.474-10.761,2.88-19.775C313.682,175.298,305.431,170.875,299.024,171.318z M311.692,194.988
				c0.607-6.548-3.837-9.922-5.593-10.653c-3.859-1.594-6.776-0.902-9.332,0.915c-3.112,2.943-6.145,7.906-2.033,13.557l2.921,2.445
				c-2.766,0.915-8.063-3.294-9.162-6.396c-1.842-4.416-1.644-10.093,1.671-13.753c4.205-5.693,13.231-6.89,20.002-0.763
				C313.372,183.232,313.984,191.798,311.692,194.988z"/>
			<path fill-rule="evenodd" clip-rule="evenodd" fill="#FFFFFF" d="M290.165,181.103c-3.315,3.661-3.514,9.338-1.671,13.753
				c1.099,3.102,6.396,7.311,9.162,6.396l-2.921-2.445c-4.112-5.651-1.079-10.614,2.033-13.557c2.555-1.817,5.473-2.509,9.332-0.915
				c1.756,0.731,6.2,4.104,5.593,10.653c2.292-3.19,1.68-11.756-1.524-14.648C303.396,174.213,294.37,175.41,290.165,181.103z"/>
			<path fill-rule="evenodd" clip-rule="evenodd" fill="#F05145" d="M372.464,181.875c-7.205-1.404-14.194,0.603-18.936,7.313
				c-3.778,5.37-3.877,12.509-0.751,18.171c3.094,4.962,5.902,8.283,12.965,9.157c7.269,0.926,14.395-3.045,18.045-9.455
				c2.564-4.577,2.389-11.798-0.181-16.193C381.418,186.663,377.188,182.79,372.464,181.875z M373.904,210.712
				c-2.204,0.742-6.945,1.841-9.227,0.311c2.932-0.72,6.806-2.189,8.397-4.884c1.973-3.357,1.869-7.517-1.375-11.282
				c-1.825-2.164-5.459-3.681-9.148-2.761c-3.054,0.765-5.664,3.815-6.428,7.172c-1.534-2.881,1.224-9.467,5.342-11.286
				c6.801-3.02,12.065-1.99,15.723,1.662c3.316,2.761,3.673,7.244,3.673,11.458C380.688,205.312,377.563,208.528,373.904,210.712z"
				/>
			<path fill-rule="evenodd" clip-rule="evenodd" fill="#FFFFFF" d="M361.466,187.981c-4.118,1.819-6.876,8.405-5.342,11.286
				c0.764-3.357,3.374-6.407,6.428-7.172c3.689-0.92,7.323,0.597,9.148,2.761c3.244,3.765,3.348,7.925,1.375,11.282
				c-1.592,2.695-5.466,4.164-8.397,4.884c2.281,1.531,7.022,0.431,9.227-0.311c3.658-2.184,6.783-5.4,6.957-9.611
				c0-4.214-0.356-8.697-3.673-11.458C373.531,185.991,368.267,184.961,361.466,187.981z"/>
			<path fill-rule="evenodd" clip-rule="evenodd" fill="#FFFFFF" d="M409.808,247.223c-16.135-4.395-37.684-9.05-46.052-11.225
				c-5.729-6.875,8.012-2.069,25.645-5.959c-15.104-5.495-42.004-5.758-59.328,5.268c-14.627-12.709-39.027-23.367-59.981-20.962
				c6.067,3.097,16.365,5.85,24.955,8.36c2.751,2.637,1.042,2.978-0.447,3.888c-15.805-0.91-31.827-1.144-47.771-1.716
				c-15.678,16.616-8.42,39.287-6.868,43.873c7.192,21.002,27.598,39.848,52.687,47.041c40.142,11.569,77.683,0.894,93.863-11.624
				C414.482,282.531,415.687,260.203,409.808,247.223z M310.675,302.339c-32.79-9.902-34.066-49.852-48.18-73.11
				c19.25,18.683,53.307,3.124,75.856,14.485c17.595,7.851,40.309,14.104,56.988,4.573c-15.576,15.193-28.588,32.061-43.428,47.819
				C341.653,306.891,323.695,306.559,310.675,302.339z"/>
			<path fill-rule="evenodd" clip-rule="evenodd" fill="#FFFFFF" d="M260.935,216.18c-4.936,1.262-8.026,3.092-9.069,4.688
				c10.21,0.814,19.313,1.229,26.817,1.037C271.926,219.861,268.144,217.561,260.935,216.18z"/>
			<path fill-rule="evenodd" clip-rule="evenodd" fill="#F05145" d="M338.352,243.714c-22.549-11.362-56.606,4.197-75.856-14.485
				c14.113,23.259,15.39,63.208,48.18,73.11c13.02,4.22,30.978,4.552,41.237-6.232c14.84-15.759,27.852-32.626,43.428-47.819
				C378.66,257.818,355.946,251.564,338.352,243.714z M348.175,292.116c-8.231,7.313-15.819,7.193-28.612,5.934
				c-11.708-1.127-20.79-7.072-24.829-12.207c0.312-4.267,3.957-8.32,7.647-10.454c8.708-5.038,24.032-6.43,38.937,1.375
				C347.946,281.354,350.696,290.045,348.175,292.116z"/>
			<path fill-rule="evenodd" clip-rule="evenodd" fill="#FFFFFF" d="M398.22,233.822c-5.727-0.124-14.362,1.377-20.031,1.377
				l28.759,7.213C405.232,237.819,400.406,234.391,398.22,233.822z"/>
			<path fill-rule="evenodd" clip-rule="evenodd" fill="#FFFFFF" d="M166.489,252.254c-1.649,3.299-4.88,8.554-4.581,11.227
				c5.5,5.5,10.816,10.827,16.842,15.586c-0.548,2.203-2.001,4.026-3.652,5.871c-6.788-6.119-10.748-5.5-16.865-8.243
				c1.23,15.251,6.726,26.546,6.726,26.546l-6.405,2.146c0,0-0.196-6.664-7.944-8.867c-4.025-1.089-8.496-0.038-11.422,3.246
				c-1.84,2.755-4.147,5.929-0.185,13.25c4.091,7.562,10.278,10.372,18.021,12.217c22.894,5.503,54.038-9.156,63.325-23.458
				C191.831,281.27,184.194,275.779,166.489,252.254z"/>
			<path fill-rule="evenodd" clip-rule="evenodd" fill="#FFFFFF" d="M341.318,276.764c-14.904-7.805-30.229-6.413-38.937-1.375
				c-3.691,2.134-7.335,6.188-7.647,10.454c4.039,5.135,13.12,11.08,24.829,12.207c12.792,1.26,20.38,1.38,28.612-5.934
				C350.696,290.045,347.946,281.354,341.318,276.764z"/>
		</g>
		<g>
			<g>
				<polygon fill-rule="evenodd" clip-rule="evenodd" fill="#FFFFFF" points="577.681,421.139 577.824,369.845 593.457,369.704 
					608.713,400.78 608.673,369.407 621.043,369.52 620.979,421.141 606.208,421.266 590.728,390.866 590.728,421.27 				"/>
				<path fill="#FFFFFF" d="M609.424,370.164l10.868,0.099l-0.063,50.134l-13.563,0.115l-16.688-32.771v32.771l-11.545-0.115
					l0.14-49.809l14.42-0.13l16.475,33.561L609.424,370.164 M607.922,368.65l0.002,1.516l0.035,27.376l-13.62-27.745l-0.416-0.848
					l-0.944,0.009l-14.42,0.13l-1.482,0.014l-0.004,1.482l-0.14,49.809l-0.004,1.489l1.489,0.015l11.545,0.115l1.515,0.015v-1.515
					v-26.52l13.852,27.2l0.422,0.827l0.928-0.008l13.563-0.115l1.485-0.013l0.002-1.485l0.063-50.134l0.002-1.488l-1.488-0.014
					l-10.868-0.099L607.922,368.65L607.922,368.65z"/>
			</g>
			<g>
				<polygon fill-rule="evenodd" clip-rule="evenodd" fill="#FFFFFF" points="464.544,422.07 464.626,379.685 451.958,379.685 
					451.958,370.132 491.625,370.132 491.541,379.651 478.953,379.683 478.953,422.12 				"/>
				<path fill="#FFFFFF" d="M490.868,370.882l-0.07,8.021l-12.595,0.031v42.433l-12.908-0.044l0.082-42.389h-12.669v-8.053H490.868
					 M492.382,369.382h-1.514h-38.16h-1.5v1.5v8.053v1.5h1.5h11.166l-0.079,40.886l-0.003,1.498l1.498,0.005l12.908,0.044
					l1.505,0.005v-1.505v-40.937l11.099-0.027l1.483-0.004l0.013-1.483l0.07-8.021L492.382,369.382L492.382,369.382z"/>
			</g>
			<g>
				<polygon fill-rule="evenodd" clip-rule="evenodd" fill="#FFFFFF" points="498.034,421.593 498.145,369.838 512.459,369.838 
					512.459,421.666 				"/>
				<path fill="#FFFFFF" d="M511.709,370.588v50.324l-12.923-0.065l0.106-50.259H511.709 M513.209,369.088h-1.5h-12.816h-1.497
					l-0.003,1.497l-0.106,50.259l-0.003,1.495l1.495,0.008l12.923,0.065l1.508,0.008v-1.508v-50.324V369.088L513.209,369.088z"/>
			</g>
			<g>
				<polygon fill-rule="evenodd" clip-rule="evenodd" fill="#FFFFFF" points="255.342,370.303 270.611,370.303 286.386,401.629 
					286.288,369.854 299.012,369.985 298.883,422.384 283.59,422.446 267.806,391.228 267.76,422.383 255.342,422.448 				"/>
				<path fill="#FFFFFF" d="M287.04,370.611l11.22,0.116l-0.125,50.909l-14.084,0.058l-16.99-33.604l-0.049,33.546l-10.919,0.058
					v-50.642h14.057l16.997,33.753L287.04,370.611 M285.535,369.096l0.005,1.521l0.086,27.837l-14.138-28.075l-0.416-0.825h-0.924
					h-14.057h-1.5v1.5v50.642v1.508l1.508-0.008l10.919-0.058l1.49-0.008l0.002-1.49l0.04-27.274l14.161,28.007l0.418,0.827
					l0.927-0.004l14.084-0.058l1.49-0.006l0.004-1.49l0.125-50.909l0.004-1.488l-1.488-0.016l-11.22-0.116L285.535,369.096
					L285.535,369.096z"/>
			</g>
			<g>
				<polygon fill-rule="evenodd" clip-rule="evenodd" fill="#FFFFFF" points="311.569,370.303 326.037,370.303 326.037,421.171 
					311.569,421.204 				"/>
				<path fill="#FFFFFF" d="M325.287,371.053v49.37l-12.968,0.029v-49.399H325.287 M326.787,369.553h-1.5h-12.968h-1.5v1.5v49.399
					v1.503l1.503-0.003l12.967-0.029l1.497-0.003v-1.497v-49.37V369.553L326.787,369.553z"/>
			</g>
			<g>
				<polygon fill-rule="evenodd" clip-rule="evenodd" fill="#FFFFFF" points="384.411,421.894 384.455,386.427 373.563,421.5 
					363.051,421.5 351.841,387.122 351.841,421.812 339.359,421.812 339.338,370.647 360.011,370.766 368.173,401.971 
					377.401,370.442 397.646,370.325 397.699,422.131 				"/>
				<path fill="#FFFFFF" d="M396.897,371.079l0.051,50.288l-11.786-0.21l0.049-39.694l-12.2,39.287h-9.416l-12.504-38.348v38.659
					h-10.981l-0.021-49.66l19.343,0.111l8.701,33.267l9.832-33.59L396.897,371.079 M398.396,369.57l-1.507,0.009l-18.934,0.11
					l-1.117,0.007l-0.313,1.071l-8.312,28.395l-7.331-28.029l-0.291-1.113l-1.151-0.007l-19.343-0.111l-1.51-0.009l0.001,1.51
					l0.021,49.66l0.001,1.499h1.499h10.981h1.5v-1.5v-29.221l9.578,29.374l0.337,1.035h1.089h9.416h1.104l0.328-1.055l9.256-29.805
					l-0.037,29.765l-0.002,1.476l1.476,0.026l11.786,0.21l1.528,0.027l-0.002-1.529l-0.051-50.288L398.396,369.57L398.396,369.57z"
					/>
			</g>
			<g>
				<polygon fill-rule="evenodd" clip-rule="evenodd" fill="#FFFFFF" points="116.653,422.444 116.636,370.652 147.972,370.612 
					147.857,380.449 130.047,380.474 130.047,391.1 146.605,390.989 146.736,400.518 130.204,400.518 130.204,413.037 
					149.101,412.896 149.207,422.444 				"/>
				<path fill="#FFFFFF" d="M147.213,371.363l-0.097,8.337l-17.819,0.024v12.13l16.568-0.11l0.111,8.023h-16.522v14.025
					l18.905-0.142l0.089,8.043h-31.045l-0.017-50.293L147.213,371.363 M148.73,369.861l-1.52,0.002l-29.827,0.038l-1.499,0.002
					l0,1.499l0.017,50.293l0,1.499h1.5h31.045h1.517l-0.017-1.517l-0.089-8.043l-0.017-1.494l-1.495,0.011l-17.394,0.13v-11.014
					h15.022h1.521l-0.021-1.521l-0.111-8.023l-0.021-1.489l-1.489,0.01l-15.059,0.101v-9.122l16.321-0.022l1.481-0.002l0.017-1.48
					l0.097-8.337L148.73,369.861L148.73,369.861z"/>
			</g>
			<g>
				<polygon fill-rule="evenodd" clip-rule="evenodd" fill="#FFFFFF" points="158.807,370.613 173.44,370.613 173.378,422.681 
					158.807,422.774 				"/>
				<path fill="#FFFFFF" d="M172.689,371.363l-0.06,50.572l-13.072,0.084v-50.656H172.689 M174.191,369.863h-1.502h-13.132h-1.5v1.5
					v50.656v1.51l1.51-0.01l13.072-0.084l1.488-0.01l0.002-1.488l0.06-50.572L174.191,369.863L174.191,369.863z"/>
			</g>
			<g>
				<polygon fill-rule="evenodd" clip-rule="evenodd" fill="#FFFFFF" points="30.161,422.599 30.08,381.071 17.34,381.109 
					17.34,370.303 57.153,370.303 57.084,380.602 44.409,380.602 44.471,422.599 				"/>
				<path fill="#FFFFFF" d="M56.398,371.053l-0.059,8.799H43.658l0.063,41.997H30.91l-0.082-41.529l-12.738,0.038v-9.305H56.398
					 M57.909,369.553h-1.51H18.09h-1.5v1.5v9.305v1.505l1.504-0.005l11.237-0.033l0.079,40.027l0.003,1.497h1.497H43.72h1.502
					l-0.002-1.502l-0.06-40.495h11.179h1.49l0.01-1.49l0.059-8.799L57.909,369.553L57.909,369.553z"/>
			</g>
			<g>
				<path fill-rule="evenodd" clip-rule="evenodd" fill="#FFFFFF" d="M544.333,422.446c-15.956-0.001-22.841-7.679-23.021-25.674
					c-0.188-17.735,8.972-28.078,25.131-28.377l0.534-0.005c6.217,0,11.237,1.925,14.921,5.721c6.286,6.476,6.952,16.59,6.79,22.043
					c-0.561,17.794-8.158,26.147-23.912,26.29L544.333,422.446z M545.527,376.853c-2.371,0-4.183,0.668-5.537,2.041
					c-2.452,2.485-3.543,7.408-3.433,15.492c0.306,16.654,0.608,19.801,8.384,20.099c6.851-0.432,8.009-4.374,8.939-19.812
					C553.396,382.976,552.805,376.853,545.527,376.853z"/>
				<path fill="#FFFFFF" d="M546.977,369.141c16.715,0,21.34,14.268,20.961,26.991c-0.462,14.673-5.572,25.403-23.169,25.563
					c-0.146,0.001-0.29,0.002-0.436,0.002c-16.948,0-22.111-8.983-22.271-24.932c-0.159-14.993,6.793-27.294,24.395-27.619
					C546.632,369.143,546.804,369.141,546.977,369.141 M544.913,415.233c7.721-0.481,8.804-5.375,9.717-20.516
					c-0.448-10.89-0.756-18.615-9.103-18.615c-7.564,0-9.881,6.461-9.72,18.293C536.111,410.959,536.424,414.908,544.913,415.233
					 M546.977,367.641c-0.182,0-0.362,0.002-0.547,0.005c-8.778,0.162-15.51,3.151-20.011,8.883
					c-3.92,4.991-5.945,11.994-5.857,20.252c0.09,8.966,1.733,15.122,5.174,19.374c3.833,4.738,9.916,7.042,18.598,7.042
					l0.449-0.002c21.343-0.193,24.292-15.511,24.654-27.016c0.166-5.573-0.522-15.917-7-22.59
					C558.605,369.642,553.404,367.641,546.977,367.641L546.977,367.641z M544.895,413.731c-6.834-0.277-7.278-2.495-7.587-19.363
					c-0.107-7.862,0.915-12.614,3.217-14.948c1.206-1.223,2.843-1.817,5.003-1.817c6.597,0,7.125,5.552,7.601,17.101
					C552.176,410.442,550.934,413.332,544.895,413.731L544.895,413.731z"/>
			</g>
			<g>
				<path fill-rule="evenodd" clip-rule="evenodd" fill="#FFFFFF" d="M83.421,424.179c-9.133-0.073-15.078-2.394-18.708-7.302
					c-3.26-4.409-4.676-10.904-4.591-21.06c0.097-11.294,2.675-26.308,23.857-26.308l0.529,0.003
					c6.737,0.072,12.393,2.372,16.355,6.651c4.615,4.982,6.741,12.345,6.15,21.289c-0.851,13.215-4.282,26.727-23.254,26.727
					C83.757,424.18,83.421,424.179,83.421,424.179z M83.447,378.272c-8.006,0-8.523,7.756-8.702,20.41
					c-0.091,6.687,0.046,12.011,2.644,14.644c1.395,1.414,3.569,2.102,6.647,2.102c0.326,0.021,0.59,0.029,0.846,0.029
					c6.07,0,6.562-5.261,6.963-15.344c0.067-1.687,0.138-3.461,0.251-5.299c-0.001-12.233-2.116-16.419-8.38-16.539L83.447,378.272z
					"/>
				<path fill="#FFFFFF" d="M83.979,370.26c0.172,0,0.347,0.001,0.521,0.003c14.36,0.154,22.861,10.564,21.766,27.141
					c-0.726,11.278-3.199,26.026-22.509,26.026c-0.108,0-0.22,0-0.329-0.001c-18.07-0.145-22.709-9.315-22.556-27.605
					C60.978,383.455,64.06,370.26,83.979,370.26 M84.882,416.207c8.339,0,7.216-9.27,7.963-21.347
					c0-11.351-1.703-17.192-9.114-17.335c-0.096-0.002-0.19-0.003-0.284-0.003c-8.988,0.001-9.285,9.329-9.452,21.149
					c-0.152,11.187,0.458,17.506,10.041,17.506C84.329,416.197,84.61,416.207,84.882,416.207 M83.979,368.76
					c-21.848,0-24.507,15.438-24.607,27.051c-0.086,10.329,1.375,16.964,4.738,21.512c3.782,5.114,9.917,7.531,19.306,7.606
					l0.341,0.001c22.24,0,23.478-19.222,24.006-27.43c0.605-9.152-1.59-16.708-6.349-21.846c-4.106-4.434-9.949-6.816-16.898-6.892
					C84.337,368.761,84.156,368.76,83.979,368.76L83.979,368.76z M84.036,414.678c-2.867,0-4.867-0.614-6.114-1.878
					c-2.393-2.426-2.516-7.599-2.427-14.107c0.189-13.37,1.036-19.669,7.953-19.67c0.084,0,0.167,0.001,0.252,0.003
					c5.709,0.109,7.641,4.095,7.646,15.789c-0.113,1.832-0.182,3.579-0.25,5.269c-0.393,9.877-0.821,14.624-6.214,14.624
					c-0.239,0-0.486-0.008-0.744-0.025l-0.051-0.004H84.036L84.036,414.678z"/>
			</g>
			<g>
				<path fill-rule="evenodd" clip-rule="evenodd" fill="#FFFFFF" d="M420.203,370.132h18.546l14.332,51.828h-13.899l-4.939-16.404
					h-11.743l-5.712,16.554l-13.769,0.19L420.203,370.132z M432.25,396.34l-3.792-13.132l-3.784,13.132H432.25z"/>
				<path fill="#FFFFFF" d="M438.179,370.882l13.917,50.328h-12.356l-4.939-16.404h-12.835l-5.715,16.562l-12.19,0.168
					l16.687-50.653H438.179 M423.677,397.09h9.57l-4.79-16.588L423.677,397.09 M439.32,369.382h-1.142h-17.433h-1.085l-0.34,1.03
					l-16.687,50.653l-0.658,1.999l2.104-0.029l12.19-0.168l1.054-0.015l0.344-0.996l5.366-15.551h10.65l4.618,15.337l0.321,1.067
					h1.115h12.356h1.971l-0.525-1.899l-13.917-50.328L439.32,369.382L439.32,369.382z M425.67,395.59l2.789-9.676l2.794,9.676
					H425.67L425.67,395.59z"/>
			</g>
			<g>
				<path fill-rule="evenodd" clip-rule="evenodd" fill="#FFFFFF" d="M216.319,370.613h18.875l14.789,51.831h-14.37l-4.651-16.563
					h-12.62l-5.086,16.716l-13.509,0.047L216.319,370.613z M220.97,396.494l7.201-0.011l-3.197-13.141L220.97,396.494z"/>
				<path fill="#FFFFFF" d="M234.628,371.363l14.36,50.331h-12.807l-4.651-16.563h-13.744l-5.087,16.718l-11.926,0.041
					l16.094-50.526H234.628 M219.958,397.246l9.168-0.014l-4.07-16.73L219.958,397.246 M235.76,369.863h-1.132h-17.76h-1.097
					l-0.333,1.045l-16.094,50.526l-0.625,1.962l2.06-0.007l11.926-0.041l1.107-0.004l0.322-1.06l4.763-15.654h11.496l4.344,15.469
					l0.308,1.095h1.137h12.807h1.988l-0.545-1.911l-14.36-50.331L235.76,369.863L235.76,369.863z M221.983,395.743l2.911-9.561
					l2.324,9.553L221.983,395.743L221.983,395.743z"/>
			</g>
		</g>
		<g>
			<g>
				<polygon fill-rule="evenodd" clip-rule="evenodd" points="609.467,404.019 592.992,370.458 578.572,370.588 578.433,420.396 
					589.978,420.512 589.978,387.741 606.666,420.512 620.229,420.396 620.292,370.263 609.424,370.164 				"/>
			</g>
			<g>
				<polygon fill-rule="evenodd" clip-rule="evenodd" points="452.708,378.935 465.377,378.935 465.295,421.323 478.203,421.367 
					478.203,378.935 490.798,378.903 490.868,370.882 452.708,370.882 				"/>
			</g>
			<g>
				<polygon fill-rule="evenodd" clip-rule="evenodd" points="498.786,420.847 511.709,420.912 511.709,370.588 498.893,370.588 
									"/>
			</g>
			<g>
				<polygon fill-rule="evenodd" clip-rule="evenodd" points="287.146,404.806 270.149,371.053 256.092,371.053 256.092,421.694 
					267.011,421.637 267.061,388.091 284.05,421.694 298.135,421.637 298.26,370.728 287.04,370.611 				"/>
			</g>
			<g>
				<polygon fill-rule="evenodd" clip-rule="evenodd" points="312.319,420.452 325.287,420.423 325.287,371.053 312.319,371.053 
									"/>
			</g>
			<g>
				<polygon fill-rule="evenodd" clip-rule="evenodd" points="377.964,371.189 368.132,404.779 359.431,371.513 340.088,371.401 
					340.109,421.062 351.091,421.062 351.091,382.402 363.595,420.75 373.011,420.75 385.211,381.463 385.162,421.157 
					396.948,421.367 396.897,371.079 				"/>
			</g>
			<g>
				<polygon fill-rule="evenodd" clip-rule="evenodd" points="148.359,413.651 129.454,413.793 129.454,399.768 145.976,399.768 
					145.865,391.744 129.297,391.854 129.297,379.725 147.116,379.7 147.213,371.363 117.386,371.401 117.403,421.694 
					148.448,421.694 				"/>
			</g>
			<g>
				<polygon fill-rule="evenodd" clip-rule="evenodd" points="159.557,422.02 172.629,421.936 172.689,371.363 159.557,371.363 				
					"/>
			</g>
			<g>
				<polygon fill-rule="evenodd" clip-rule="evenodd" points="30.91,421.849 43.72,421.849 43.658,379.852 56.339,379.852 
					56.398,371.053 18.09,371.053 18.09,380.357 30.828,380.319 				"/>
			</g>
			<g>
				<path fill-rule="evenodd" clip-rule="evenodd" d="M546.456,369.146c-17.602,0.325-24.554,12.626-24.395,27.619
					c0.161,16.085,5.409,25.084,22.707,24.93c17.597-0.159,22.707-10.89,23.169-25.563
					C568.32,383.276,563.598,368.847,546.456,369.146z M544.913,415.233c-8.489-0.325-8.802-4.274-9.105-20.838
					c-0.161-11.832,2.155-18.293,9.72-18.293c8.347,0,8.654,7.726,9.103,18.615C553.717,409.858,552.634,414.752,544.913,415.233z"
					/>
			</g>
			<g>
				<path fill-rule="evenodd" clip-rule="evenodd" d="M84.5,370.263c-20.384-0.231-23.521,13.086-23.628,25.561
					c-0.153,18.29,4.486,27.461,22.556,27.605c19.608,0.168,22.107-14.684,22.837-26.025
					C107.361,380.827,98.86,370.417,84.5,370.263z M84.036,416.178c-9.583,0-10.193-6.319-10.041-17.506
					c0.169-11.944,0.468-21.344,9.736-21.146c7.411,0.143,9.114,5.984,9.114,17.335C92.073,407.332,93.298,416.809,84.036,416.178z"
					/>
			</g>
			<g>
				<path fill-rule="evenodd" clip-rule="evenodd" d="M420.746,370.882l-16.687,50.653l12.19-0.168l5.715-16.562H434.8l4.939,16.404
					h12.356l-13.917-50.328H420.746z M423.677,397.09l4.78-16.588l4.79,16.588H423.677z"/>
			</g>
			<g>
				<path fill-rule="evenodd" clip-rule="evenodd" d="M216.868,371.363l-16.094,50.526l11.926-0.041l5.087-16.718h13.744
					l4.651,16.563h12.807l-14.36-50.331H216.868z M219.958,397.246l5.098-16.744l4.07,16.73L219.958,397.246z"/>
			</g>
		</g>
	</g>
</g>
</svg>
