<?xml version="1.0" encoding="UTF-8"?>
<svg width="276.01mm" height="346.23mm" version="1.1" viewBox="0 0 276.01 346.23" xmlns="http://www.w3.org/2000/svg" xmlns:cc="http://creativecommons.org/ns#" xmlns:dc="http://purl.org/dc/elements/1.1/" xmlns:rdf="http://www.w3.org/1999/02/22-rdf-syntax-ns#">
<metadata>
<rdf:RDF>
<cc:Work rdf:about="">
<dc:format>image/svg+xml</dc:format>
<dc:type rdf:resource="http://purl.org/dc/dcmitype/StillImage"/>
<dc:title/>
</cc:Work>
</rdf:RDF>
</metadata>
<g transform="translate(48.261 17.727)">
<path d="m224.5 43.808c-0.37157-1.4398-0.71991-1.974-1.4398-2.1598l-26.01-6.9669-3.6228-14.816c-0.18579-0.71992-0.37158-1.2541-1.0915-1.4398l-26.73-7.2224-3.2512-14.096c-0.0413-0.84528-0.62281-1.5675-1.4398-1.7882l-69.46-12.889c-1.1361-0.209-2.3009-0.209-3.437 0l-69.437 12.889c-0.82201 0.21861-1.4116 0.93917-1.4631 1.7882l-3.2512 14.096-26.73 7.2224c-0.71992 0.18577-0.9057 0.71992-1.0683 1.4398l-3.6228 14.816-26.01 6.9669c-0.7199 0.1858-1.0915 0.71993-1.4398 2.1598-2.1966 11.551-3.2853 23.286-3.2512 35.044 0 104.04 54.18 194.35 135.11 248.19 0.83802 0.69748 1.8222 1.1975 2.8797 1.4631 1.0648-0.26455 2.0568-0.76449 2.9029-1.4631 80.909-53.831 135.11-144.15 135.11-248.19 0.0226-11.758-1.066-23.491-3.2512-35.044z" fill="#004db4"/>
<path d="m79.63 279.29c0 0.71993-0.71992 1.0683-1.4398 0.34837-19.879-22.759-33.232-50.557-42.266-80.909l-13.725 8.5693c-3.6228 2.5081-6.5025 1.4398-8.6622-2.5313-18.416-32.512-30.353-85.926-31.421-123.52-0.04346-1.7241 0.59977-3.3948 1.7882-4.6446 4.9113-5.8892 10.202-11.451 15.838-16.651 1.0683-1.0915 2.1597-0.37157 2.1597 1.4398 0 46.237 7.9423 89.223 20.599 117.39 1.0683 2.1597 2.1598 2.1597 3.5996 1.0915l3.9712-2.5313c-7.5707-33.604-11.913-78.378-10.822-130.05 0-1.8114 0.34834-2.5313 1.4398-3.2512 5.5341-3.4519 11.326-6.4721 17.324-9.0338 1.8114-0.71993 2.183-0.37158 2.183 1.0683-1.0915 75.127 5.0394 127.15 18.416 168.69 0.34834 1.0682 1.4398 0.71991 1.4398-0.37156-0.71992-15.165-0.71992-28.541-0.71992-44.774l-0.71992-129.68c0-1.4398 0.34834-2.1597 1.8114-2.5313 5.9401-1.4637 11.967-2.5496 18.044-3.2512 0.29962-0.03847 0.60013 0.06411 0.81372 0.27776 0.2136 0.2136 0.31617 0.51411 0.27776 0.81373z" fill="#fff"/>
<path d="m100.95 24.185c-0.3018-0.04861-0.6082 0.05016-0.82434 0.26633-0.21616 0.21617-0.31496 0.52256-0.26634 0.82434v254.01c0 0.71992 0.71952 1.0687 1.4394 0.34875v-0.0919c67.974-62.842 88.503-109.4 88.503-137.64 0-15.885-6.154-27.797-22.039-32.14 8.1273-9.0068 12.63-20.706 12.635-32.838 0-29.261-31.051-49.488-79.448-52.739zm19.486 23.779c22.039 1.5095 38.665 13.424 38.665 27.869 0 15.165-10.728 31.42-38.665 47.606zm35.761 82.048c6.874 0 11.566 5.7814 11.566 15.907 0 14.445-10.472 42.614-47.327 83.789v-81.629c21.319-15.165 28.167-18.066 35.761-18.066z" fill="#fff"/>
</g>
</svg>
